<svg xmlns="http://www.w3.org/2000/svg" xmlns:xlink="http://www.w3.org/1999/xlink" width="40" zoomAndPan="magnify" viewBox="0 0 30 30.000001" height="40" preserveAspectRatio="xMidYMid meet" version="1.0"><defs><clipPath id="4722317a1f"><path d="M 0.484375 0 L 29.515625 0 L 29.515625 29.03125 L 0.484375 29.03125 Z M 0.484375 0 " clip-rule="nonzero"/></clipPath></defs><g clip-path="url(#4722317a1f)"><path fill="#9b33cf" d="M 29.515625 14.515625 C 29.515625 15.46875 29.421875 16.414062 29.238281 17.347656 C 29.050781 18.28125 28.777344 19.191406 28.410156 20.070312 C 28.046875 20.953125 27.597656 21.789062 27.070312 22.582031 C 26.539062 23.371094 25.9375 24.105469 25.265625 24.78125 C 24.589844 25.453125 23.855469 26.054688 23.0625 26.585938 C 22.273438 27.113281 21.433594 27.5625 20.554688 27.925781 C 19.675781 28.292969 18.765625 28.566406 17.832031 28.753906 C 16.898438 28.9375 15.953125 29.03125 15 29.03125 C 14.046875 29.03125 13.101562 28.9375 12.167969 28.753906 C 11.234375 28.566406 10.324219 28.292969 9.445312 27.925781 C 8.5625 27.5625 7.726562 27.113281 6.933594 26.585938 C 6.144531 26.054688 5.410156 25.453125 4.734375 24.78125 C 4.0625 24.105469 3.460938 23.371094 2.929688 22.582031 C 2.402344 21.789062 1.953125 20.953125 1.589844 20.070312 C 1.222656 19.191406 0.949219 18.28125 0.761719 17.347656 C 0.578125 16.414062 0.484375 15.46875 0.484375 14.515625 C 0.484375 13.5625 0.578125 12.617188 0.761719 11.683594 C 0.949219 10.75 1.222656 9.839844 1.589844 8.960938 C 1.953125 8.082031 2.402344 7.242188 2.929688 6.453125 C 3.460938 5.660156 4.0625 4.925781 4.734375 4.25 C 5.410156 3.578125 6.144531 2.976562 6.933594 2.445312 C 7.726562 1.917969 8.5625 1.46875 9.445312 1.105469 C 10.324219 0.738281 11.234375 0.464844 12.167969 0.277344 C 13.101562 0.09375 14.046875 0 15 0 C 15.953125 0 16.898438 0.09375 17.832031 0.277344 C 18.765625 0.464844 19.675781 0.738281 20.554688 1.105469 C 21.433594 1.46875 22.273438 1.917969 23.0625 2.445312 C 23.855469 2.976562 24.589844 3.578125 25.265625 4.25 C 25.9375 4.925781 26.539062 5.660156 27.070312 6.453125 C 27.597656 7.242188 28.046875 8.082031 28.410156 8.960938 C 28.777344 9.839844 29.050781 10.75 29.238281 11.683594 C 29.421875 12.617188 29.515625 13.5625 29.515625 14.515625 Z M 29.515625 14.515625 " fill-opacity="1" fill-rule="nonzero"/></g><path fill="#ffffff" d="M 21.332031 19.585938 C 21.113281 19.585938 20.933594 19.40625 20.933594 19.183594 L 20.933594 16.261719 C 20.933594 15.734375 21.730469 15.734375 21.730469 16.261719 L 21.730469 19.183594 C 21.730469 19.40625 21.554688 19.585938 21.332031 19.585938 Z M 18.382812 19.585938 C 18.164062 19.585938 17.984375 19.40625 17.984375 19.1875 L 17.984375 15.464844 C 17.984375 14.9375 18.78125 14.9375 18.78125 15.464844 L 18.78125 19.1875 C 18.78125 19.40625 18.605469 19.585938 18.382812 19.585938 Z M 15.433594 19.585938 C 15.214844 19.585938 15.035156 19.40625 15.035156 19.183594 L 15.035156 14.585938 C 15.035156 14.0625 15.832031 14.0625 15.832031 14.585938 L 15.832031 19.183594 C 15.832031 19.40625 15.652344 19.585938 15.433594 19.585938 Z M 12.484375 19.585938 C 12.261719 19.585938 12.085938 19.40625 12.085938 19.1875 L 12.085938 13.875 C 12.085938 13.347656 12.882812 13.347656 12.882812 13.875 L 12.882812 19.1875 C 12.882812 19.40625 12.703125 19.585938 12.484375 19.585938 Z M 9.535156 19.585938 C 9.3125 19.585938 9.132812 19.40625 9.132812 19.1875 L 9.132812 12.710938 C 9.132812 12.1875 9.933594 12.1875 9.933594 12.710938 L 9.933594 19.1875 C 9.933594 19.40625 9.753906 19.585938 9.53125 19.585938 Z M 9.535156 19.585938 " fill-opacity="1" fill-rule="evenodd"/><path fill="#ffffff" d="M 18.464844 11.910156 L 17.183594 12.917969 C 17.035156 13.035156 16.824219 13.035156 16.679688 12.910156 L 13.570312 10.289062 L 12.203125 11.382812 C 12.042969 11.507812 11.816406 11.5 11.675781 11.359375 L 9.550781 9.292969 C 9.175781 8.929688 9.730469 8.355469 10.105469 8.722656 L 11.976562 10.539062 L 13.324219 9.460938 C 13.472656 9.34375 13.6875 9.347656 13.832031 9.46875 L 16.945312 12.089844 L 18.226562 11.082031 C 18.375 10.964844 18.585938 10.96875 18.730469 11.089844 L 21.671875 13.566406 C 22.078125 13.90625 21.554688 14.511719 21.15625 14.175781 Z M 18.464844 11.910156 " fill-opacity="1" fill-rule="evenodd"/><path fill="#ffffff" d="M 7.488281 22.027344 L 23.492188 22.027344 C 24.019531 22.027344 24.019531 22.828125 23.492188 22.828125 L 7.085938 22.828125 C 6.867188 22.828125 6.6875 22.648438 6.6875 22.425781 L 6.6875 6.167969 C 6.6875 5.640625 7.488281 5.640625 7.488281 6.167969 Z M 7.488281 22.027344 " fill-opacity="1" fill-rule="evenodd"/><path fill="#ffffff" d="M 19.933594 14.59375 C 19.882812 14.59375 19.84375 14.578125 19.808594 14.554688 L 21.800781 11.910156 C 21.859375 11.945312 21.902344 12.011719 21.902344 12.101562 L 21.847656 14.058594 C 21.84375 14.160156 21.769531 14.246094 21.667969 14.265625 Z M 19.933594 14.59375 " fill-opacity="1" fill-rule="evenodd"/><path fill="#ffffff" d="M 5.710938 6.984375 C 5.703125 6.933594 5.714844 6.875 5.757812 6.820312 L 6.914062 5.308594 C 6.996094 5.203125 7.179688 5.203125 7.261719 5.308594 L 8.417969 6.820312 C 8.457031 6.871094 8.46875 6.929688 8.460938 6.984375 Z M 5.710938 6.984375 " fill-opacity="1" fill-rule="evenodd"/><path fill="#ffffff" d="M 22.5625 23.804688 C 22.53125 23.804688 22.5 23.796875 22.472656 23.785156 L 22.472656 21.070312 C 22.539062 21.039062 22.617188 21.039062 22.695312 21.09375 L 24.207031 22.253906 C 24.320312 22.339844 24.320312 22.511719 24.207031 22.601562 L 22.695312 23.757812 C 22.65625 23.789062 22.609375 23.804688 22.5625 23.804688 Z M 22.5625 23.804688 " fill-opacity="1" fill-rule="evenodd"/></svg>