<svg xmlns="http://www.w3.org/2000/svg" xmlns:xlink="http://www.w3.org/1999/xlink" width="300" zoomAndPan="magnify" viewBox="0 0 224.87999 74.999997" height="100" preserveAspectRatio="xMidYMid meet" version="1.0"><defs><filter x="0%" y="0%" width="100%" height="100%" id="3393b4b8e0"><feColorMatrix values="0 0 0 0 1 0 0 0 0 1 0 0 0 0 1 0 0 0 1 0" color-interpolation-filters="sRGB"/></filter><g/><clipPath id="6217db331d"><path d="M 7.496094 43.277344 L 217.382812 43.277344 L 217.382812 56.023438 L 7.496094 56.023438 Z M 7.496094 43.277344 " clip-rule="nonzero"/></clipPath><clipPath id="38c23c407a"><path d="M 14.863281 50.207031 L 209.757812 50.207031 L 209.757812 61.453125 L 14.863281 61.453125 Z M 14.863281 50.207031 " clip-rule="nonzero"/></clipPath><clipPath id="92b3d6a0bb"><path d="M 86.136719 0.0195312 L 127.363281 0.0195312 L 127.363281 68.984375 L 86.136719 68.984375 Z M 86.136719 0.0195312 " clip-rule="nonzero"/></clipPath><mask id="7cc2896f23"><g filter="url(#3393b4b8e0)"><rect x="-22.487999" width="269.855988" fill="#000000" y="-7.5" height="89.999996" fill-opacity="0.4"/></g></mask><clipPath id="d126697820"><path d="M 1 0.84375 L 28.492188 0.84375 L 28.492188 31.546875 L 1 31.546875 Z M 1 0.84375 " clip-rule="nonzero"/></clipPath><clipPath id="9cef2e7ae6"><rect x="0" width="29" y="0" height="32"/></clipPath></defs><g clip-path="url(#6217db331d)"><path fill="#5e17eb" d="M 7.523438 43.277344 L 217.359375 43.277344 L 217.359375 56.023438 L 7.523438 56.023438 L 7.523438 43.277344 " fill-opacity="1" fill-rule="nonzero"/></g><g clip-path="url(#38c23c407a)"><path fill="#ff66c4" d="M 14.886719 50.207031 L 209.734375 50.207031 L 209.734375 61.453125 L 14.886719 61.453125 L 14.886719 50.207031 " fill-opacity="1" fill-rule="nonzero"/></g><g clip-path="url(#92b3d6a0bb)"><path fill="#ff66c4" d="M 125.523438 33.558594 C 124.078125 31.378906 122.164062 30.921875 120.8125 30.921875 C 119.425781 30.921875 118.179688 31.394531 117.175781 31.777344 C 117.03125 31.832031 116.859375 31.898438 116.691406 31.957031 C 116.019531 30.730469 115.5625 29.324219 115.277344 27.644531 C 117.316406 24.863281 118.402344 22.25 118.511719 19.863281 C 118.828125 12.808594 117.308594 7.480469 113.992188 4.035156 C 111.46875 1.410156 108.011719 0.0234375 103.996094 0.0234375 C 101.980469 0.0234375 99.898438 0.371094 97.804688 1.054688 C 97.773438 1.0625 97.746094 1.074219 97.714844 1.085938 C 94.546875 2.136719 91.636719 3.875 89.527344 5.980469 C 89.308594 6.195312 89.097656 6.417969 88.902344 6.636719 L 88.820312 6.730469 C 88.765625 6.789062 88.714844 6.851562 88.660156 6.910156 L 88.003906 7.6875 L 88.003906 7.753906 C 86.785156 9.449219 86.144531 11.238281 86.148438 12.976562 C 86.15625 17.339844 86.9375 19.566406 87.511719 21.191406 C 87.773438 21.933594 87.945312 22.421875 87.988281 22.949219 C 88.066406 23.894531 88.027344 24.363281 87.984375 24.859375 C 87.933594 25.449219 87.875 26.113281 88 27.152344 C 88.308594 29.824219 93.074219 37.105469 93.46875 37.636719 C 94.417969 38.921875 96.066406 39.574219 98.363281 39.574219 C 99.476562 39.574219 100.632812 39.421875 101.628906 39.164062 C 101.6875 39.589844 101.695312 39.855469 101.691406 40.003906 C 100.847656 41.109375 97.34375 43.8125 93.863281 46.023438 L 92.175781 47.09375 L 97.574219 68.988281 L 125.183594 49.832031 L 125.46875 48.929688 C 125.5 48.824219 126.261719 46.382812 126.703125 43.417969 C 127.359375 38.972656 126.972656 35.75 125.523438 33.558594 Z M 125.523438 33.558594 " fill-opacity="1" fill-rule="nonzero"/></g><path fill="#5271ff" d="M 123.191406 35.085938 C 123.191406 35.085938 123.191406 35.085938 123.191406 35.082031 C 123.144531 35.015625 123.097656 34.949219 123.050781 34.886719 C 123.035156 34.867188 123.023438 34.851562 123.007812 34.832031 C 122.972656 34.789062 122.9375 34.742188 122.90625 34.703125 C 122.890625 34.683594 122.875 34.667969 122.859375 34.652344 C 122.820312 34.605469 122.78125 34.5625 122.738281 34.519531 C 122.730469 34.511719 122.722656 34.5 122.714844 34.492188 C 122.660156 34.441406 122.609375 34.390625 122.558594 34.34375 C 122.554688 34.339844 122.550781 34.339844 122.546875 34.335938 C 122.496094 34.292969 122.449219 34.253906 122.398438 34.214844 C 122.390625 34.210938 122.378906 34.203125 122.371094 34.195312 C 122.324219 34.160156 122.277344 34.128906 122.226562 34.097656 C 122.222656 34.09375 122.214844 34.089844 122.210938 34.085938 C 122.097656 34.015625 121.980469 33.953125 121.867188 33.90625 C 121.867188 33.90625 121.867188 33.90625 121.863281 33.90625 C 119.765625 33.007812 117.140625 35.382812 115.566406 34.859375 C 114.296875 36.339844 105.597656 46.683594 105.597656 46.683594 C 105.597656 46.683594 104.800781 43.15625 104.011719 41.546875 C 103.457031 42.304688 102.429688 43.238281 101.273438 44.167969 L 103.988281 45.128906 L 102.109375 48.820312 L 102.542969 45.75 L 101.203125 44.226562 C 98.59375 46.3125 95.367188 48.363281 95.367188 48.363281 L 99.316406 64.390625 L 122.800781 48.097656 C 122.800781 48.097656 125.707031 38.878906 123.191406 35.085938 Z M 109.066406 46.460938 L 106.578125 48.785156 L 107.84375 45.128906 L 117.585938 42.71875 Z M 100.574219 7.726562 C 100.851562 7.320312 101.167969 6.953125 101.523438 6.628906 C 103.105469 7.007812 104.089844 7.523438 104.089844 7.523438 L 104.089844 14.03125 C 104.078125 14.035156 101.191406 15.234375 99.488281 16.144531 C 98.773438 12.882812 99.160156 9.789062 100.574219 7.726562 Z M 93.019531 8.054688 C 93.273438 7.6875 93.554688 7.351562 93.863281 7.042969 C 92.851562 7.425781 91.820312 7.960938 90.796875 8.707031 C 90.65625 8.871094 90.523438 9.035156 90.398438 9.203125 C 90.382812 9.222656 90.367188 9.242188 90.355469 9.261719 C 90.308594 9.320312 90.265625 9.382812 90.222656 9.445312 C 90.207031 9.46875 90.1875 9.492188 90.171875 9.515625 C 90.128906 9.578125 90.085938 9.640625 90.046875 9.703125 C 90.03125 9.722656 90.019531 9.742188 90.007812 9.761719 C 89.957031 9.839844 89.90625 9.921875 89.859375 10 C 89.84375 10.027344 89.828125 10.054688 89.8125 10.082031 C 89.78125 10.132812 89.75 10.1875 89.71875 10.238281 C 89.703125 10.273438 89.683594 10.308594 89.664062 10.34375 C 89.640625 10.390625 89.613281 10.4375 89.589844 10.484375 C 89.574219 10.519531 89.554688 10.554688 89.539062 10.589844 C 89.511719 10.640625 89.488281 10.695312 89.464844 10.746094 C 89.449219 10.777344 89.4375 10.804688 89.425781 10.835938 C 89.390625 10.910156 89.359375 10.988281 89.328125 11.0625 C 89.316406 11.097656 89.304688 11.132812 89.289062 11.164062 C 89.273438 11.214844 89.253906 11.261719 89.238281 11.308594 C 89.226562 11.347656 89.214844 11.382812 89.199219 11.417969 C 89.1875 11.464844 89.171875 11.511719 89.15625 11.558594 C 89.148438 11.59375 89.136719 11.628906 89.125 11.664062 C 89.109375 11.71875 89.097656 11.777344 89.082031 11.832031 C 89.074219 11.867188 89.066406 11.902344 89.058594 11.9375 C 89.042969 12.003906 89.03125 12.074219 89.015625 12.140625 C 89.011719 12.175781 89.003906 12.210938 89 12.246094 C 88.992188 12.289062 88.984375 12.335938 88.980469 12.382812 C 88.976562 12.421875 88.972656 12.457031 88.96875 12.496094 C 88.960938 12.539062 88.957031 12.582031 88.957031 12.628906 C 88.953125 12.664062 88.949219 12.703125 88.949219 12.742188 C 88.945312 12.789062 88.945312 12.832031 88.941406 12.878906 C 88.941406 12.910156 88.941406 12.941406 88.941406 12.972656 C 88.941406 14.484375 89.046875 15.695312 89.199219 16.699219 C 89.707031 16.800781 90.214844 16.910156 90.714844 17.046875 C 91.074219 17.066406 91.476562 17.09375 91.871094 17.128906 C 91.074219 13.636719 91.488281 10.292969 93.019531 8.054688 Z M 91.421875 10.203125 C 91.40625 10.242188 91.390625 10.300781 91.363281 10.375 C 91.339844 10.445312 91.308594 10.535156 91.273438 10.632812 C 91.242188 10.734375 91.203125 10.84375 91.164062 10.964844 C 91.125 11.082031 91.085938 11.214844 91.042969 11.347656 C 91.003906 11.484375 90.960938 11.628906 90.921875 11.773438 C 90.886719 11.921875 90.839844 12.070312 90.808594 12.226562 C 90.789062 12.304688 90.773438 12.382812 90.753906 12.460938 L 90.710938 12.695312 C 90.667969 12.851562 90.660156 13.011719 90.628906 13.164062 C 90.597656 13.320312 90.59375 13.476562 90.570312 13.625 C 90.546875 13.777344 90.546875 13.925781 90.527344 14.066406 C 90.507812 14.207031 90.511719 14.339844 90.503906 14.464844 C 90.5 14.59375 90.480469 14.710938 90.480469 14.816406 C 90.480469 14.917969 90.472656 15.011719 90.46875 15.089844 C 90.460938 15.246094 90.449219 15.339844 90.449219 15.339844 C 90.449219 15.339844 90.394531 15.265625 90.316406 15.128906 C 90.277344 15.058594 90.230469 14.976562 90.179688 14.875 C 90.125 14.777344 90.09375 14.660156 90.046875 14.53125 C 90.003906 14.402344 89.953125 14.261719 89.929688 14.105469 C 89.90625 13.953125 89.867188 13.789062 89.863281 13.617188 C 89.855469 13.53125 89.855469 13.445312 89.851562 13.355469 C 89.847656 13.269531 89.847656 13.179688 89.859375 13.089844 C 89.875 12.910156 89.886719 12.722656 89.925781 12.546875 L 89.984375 12.277344 C 90.007812 12.1875 90.039062 12.101562 90.066406 12.015625 C 90.117188 11.84375 90.191406 11.683594 90.261719 11.527344 C 90.335938 11.371094 90.417969 11.230469 90.503906 11.097656 C 90.589844 10.964844 90.675781 10.84375 90.765625 10.742188 C 90.847656 10.636719 90.9375 10.546875 91.015625 10.46875 C 91.097656 10.390625 91.171875 10.332031 91.234375 10.28125 C 91.363281 10.183594 91.445312 10.140625 91.445312 10.140625 C 91.445312 10.140625 91.4375 10.164062 91.421875 10.203125 Z M 101.953125 36.105469 C 102.226562 35.964844 102.960938 35.480469 103.949219 34.746094 C 103.964844 34.734375 103.984375 34.722656 104 34.710938 C 104.066406 34.660156 104.132812 34.609375 104.203125 34.558594 C 104.234375 34.535156 104.261719 34.515625 104.289062 34.492188 C 104.351562 34.449219 104.410156 34.402344 104.46875 34.355469 C 104.503906 34.328125 104.539062 34.304688 104.574219 34.277344 C 104.628906 34.234375 104.6875 34.1875 104.746094 34.140625 C 104.785156 34.113281 104.820312 34.085938 104.859375 34.054688 C 104.933594 34 105.003906 33.941406 105.078125 33.882812 C 105.136719 33.839844 105.195312 33.792969 105.253906 33.746094 C 105.308594 33.703125 105.367188 33.660156 105.421875 33.613281 C 105.476562 33.570312 105.527344 33.527344 105.578125 33.484375 C 105.625 33.449219 105.671875 33.410156 105.71875 33.375 C 105.777344 33.328125 105.832031 33.28125 105.890625 33.234375 C 105.933594 33.199219 105.976562 33.164062 106.019531 33.128906 C 106.082031 33.078125 106.144531 33.027344 106.207031 32.976562 C 106.242188 32.945312 106.277344 32.914062 106.3125 32.886719 C 106.382812 32.828125 106.453125 32.769531 106.523438 32.710938 C 106.523438 32.710938 106.527344 32.707031 106.527344 32.707031 C 106.710938 32.550781 106.898438 32.394531 107.085938 32.230469 C 107.09375 32.222656 107.101562 32.21875 107.109375 32.210938 C 107.191406 32.140625 107.277344 32.066406 107.359375 31.996094 C 107.382812 31.972656 107.40625 31.953125 107.425781 31.933594 C 107.507812 31.863281 107.59375 31.789062 107.675781 31.714844 C 107.695312 31.695312 107.71875 31.679688 107.738281 31.660156 C 107.824219 31.582031 107.914062 31.503906 108 31.421875 C 108.007812 31.417969 108.015625 31.410156 108.019531 31.40625 C 109.070312 30.453125 110.144531 29.40625 111.144531 28.300781 L 110.894531 26.25 L 105.589844 27.292969 L 104.933594 27.675781 L 105.148438 27.378906 L 107.921875 20.273438 L 106.710938 18.484375 C 105.398438 20.476562 103.097656 21.449219 102.984375 21.496094 L 102.890625 21.273438 C 101.96875 21.640625 98.148438 22.90625 98.148438 22.90625 L 98.148438 18.792969 C 98.148438 18.792969 97.972656 17.304688 98.347656 16.890625 C 98.449219 16.777344 98.644531 16.636719 98.90625 16.476562 C 98.097656 12.972656 98.507812 9.613281 100.046875 7.367188 C 100.265625 7.046875 100.511719 6.746094 100.773438 6.472656 C 99.328125 6.207031 97.511719 6.109375 95.542969 6.542969 C 94.746094 7.015625 94.078125 7.640625 93.546875 8.414062 C 92.082031 10.550781 91.71875 13.800781 92.542969 17.195312 C 93.242188 17.28125 93.828125 17.402344 94.015625 17.566406 C 94.261719 17.78125 94.214844 18.636719 94.1875 18.953125 C 94.527344 19.1875 94.828125 19.53125 95.09375 19.976562 L 95.582031 19.976562 L 95.320312 21.636719 L 96.074219 24.542969 C 96.074219 24.542969 97.816406 23.984375 98.160156 24.304688 C 99.019531 25.105469 99.039062 26.089844 99.039062 26.089844 C 99.039062 26.089844 96.21875 27.308594 95.261719 27.625 C 94.304688 27.941406 93.238281 26.671875 93.503906 25.617188 C 93.601562 25.234375 93.785156 24.394531 93.980469 23.476562 C 93.054688 23.453125 92.132812 23.390625 91.222656 23.207031 C 91.078125 23.175781 90.9375 23.140625 90.800781 23.105469 C 90.796875 23.09375 90.796875 23.078125 90.796875 23.066406 C 90.800781 23.097656 90.800781 23.132812 90.804688 23.167969 C 90.898438 24.898438 90.640625 25.300781 90.742188 26.53125 C 90.75 26.628906 90.761719 26.726562 90.773438 26.832031 C 90.785156 26.929688 90.808594 27.050781 90.847656 27.183594 C 90.898438 27.351562 90.96875 27.554688 91.054688 27.769531 L 93.132812 29.742188 L 91.828125 29.4375 C 91.898438 29.574219 91.972656 29.710938 92.046875 29.851562 C 93.300781 32.246094 95.109375 35.167969 95.71875 35.992188 C 96.660156 37.269531 100.613281 36.808594 101.953125 36.105469 Z M 92.992188 26.945312 C 92.90625 26.925781 92.792969 26.898438 92.664062 26.847656 C 92.535156 26.800781 92.394531 26.734375 92.257812 26.648438 C 92.1875 26.605469 92.117188 26.558594 92.054688 26.507812 C 91.984375 26.457031 91.921875 26.402344 91.855469 26.347656 C 91.796875 26.289062 91.734375 26.230469 91.675781 26.167969 C 91.617188 26.105469 91.566406 26.042969 91.515625 25.976562 C 91.417969 25.847656 91.335938 25.71875 91.277344 25.59375 C 91.214844 25.472656 91.171875 25.359375 91.148438 25.277344 C 91.125 25.195312 91.117188 25.140625 91.117188 25.140625 C 91.117188 25.140625 91.171875 25.144531 91.253906 25.160156 C 91.339844 25.175781 91.457031 25.207031 91.585938 25.257812 C 91.714844 25.304688 91.851562 25.371094 91.992188 25.457031 C 92.058594 25.5 92.128906 25.546875 92.195312 25.597656 C 92.265625 25.648438 92.328125 25.703125 92.394531 25.757812 C 92.453125 25.816406 92.515625 25.875 92.574219 25.9375 C 92.632812 25.996094 92.683594 26.0625 92.734375 26.125 C 92.832031 26.253906 92.914062 26.386719 92.972656 26.507812 C 93.035156 26.628906 93.078125 26.742188 93.101562 26.828125 C 93.125 26.910156 93.132812 26.964844 93.132812 26.964844 C 93.132812 26.964844 93.078125 26.960938 92.992188 26.945312 Z M 99.78125 34.535156 C 99.730469 34.53125 99.667969 34.527344 99.597656 34.519531 C 99.53125 34.507812 99.457031 34.496094 99.375 34.492188 C 99.292969 34.480469 99.207031 34.46875 99.117188 34.453125 C 99.027344 34.4375 98.929688 34.433594 98.835938 34.417969 C 98.738281 34.398438 98.640625 34.394531 98.542969 34.382812 C 98.445312 34.367188 98.347656 34.363281 98.246094 34.359375 C 98.148438 34.34375 98.050781 34.351562 97.957031 34.34375 C 97.859375 34.34375 97.765625 34.34375 97.671875 34.347656 C 97.582031 34.355469 97.492188 34.355469 97.40625 34.367188 C 97.320312 34.375 97.242188 34.390625 97.164062 34.402344 C 97.089844 34.417969 97.015625 34.429688 96.953125 34.449219 C 96.890625 34.460938 96.832031 34.476562 96.785156 34.492188 C 96.738281 34.507812 96.699219 34.515625 96.671875 34.527344 C 96.648438 34.535156 96.632812 34.542969 96.632812 34.542969 C 96.632812 34.542969 96.648438 34.484375 96.707031 34.390625 C 96.738281 34.351562 96.773438 34.292969 96.824219 34.242188 C 96.871094 34.183594 96.9375 34.128906 97.007812 34.070312 C 97.082031 34.019531 97.167969 33.960938 97.261719 33.914062 C 97.355469 33.863281 97.464844 33.828125 97.574219 33.792969 C 97.628906 33.777344 97.6875 33.769531 97.746094 33.757812 C 97.804688 33.746094 97.863281 33.730469 97.925781 33.730469 C 98.042969 33.722656 98.167969 33.710938 98.289062 33.722656 C 98.410156 33.734375 98.53125 33.746094 98.644531 33.777344 C 98.761719 33.800781 98.871094 33.828125 98.976562 33.875 C 99.078125 33.914062 99.179688 33.953125 99.265625 34 C 99.355469 34.050781 99.433594 34.101562 99.507812 34.148438 C 99.65625 34.242188 99.761719 34.351562 99.832031 34.421875 C 99.90625 34.496094 99.945312 34.542969 99.945312 34.542969 C 99.945312 34.542969 99.882812 34.542969 99.78125 34.535156 Z M 105.226562 31.632812 C 105.429688 31.449219 105.644531 31.265625 105.855469 31.082031 C 106.070312 30.902344 106.28125 30.722656 106.496094 30.550781 C 106.710938 30.378906 106.925781 30.210938 107.132812 30.050781 C 107.554688 29.734375 107.953125 29.449219 108.304688 29.214844 C 108.65625 28.984375 108.960938 28.796875 109.175781 28.671875 C 109.390625 28.546875 109.519531 28.484375 109.519531 28.484375 C 109.519531 28.484375 109.4375 28.601562 109.277344 28.792969 C 109.121094 28.988281 108.890625 29.253906 108.605469 29.566406 C 108.320312 29.875 107.976562 30.226562 107.59375 30.585938 C 107.40625 30.769531 107.207031 30.953125 107 31.136719 C 106.796875 31.320312 106.585938 31.503906 106.375 31.6875 C 106.160156 31.867188 105.945312 32.046875 105.730469 32.21875 C 105.515625 32.390625 105.304688 32.558594 105.09375 32.71875 C 104.675781 33.035156 104.273438 33.320312 103.921875 33.554688 C 103.570312 33.785156 103.269531 33.972656 103.054688 34.097656 C 102.839844 34.222656 102.710938 34.285156 102.710938 34.285156 C 102.710938 34.285156 102.792969 34.167969 102.949219 33.976562 C 103.109375 33.785156 103.339844 33.515625 103.625 33.207031 C 103.910156 32.894531 104.253906 32.546875 104.636719 32.183594 C 104.824219 32.003906 105.023438 31.816406 105.226562 31.632812 Z M 101.265625 25.609375 C 101.375 25.457031 101.539062 25.246094 101.746094 25.007812 C 101.949219 24.769531 102.199219 24.5 102.480469 24.226562 C 102.617188 24.089844 102.765625 23.953125 102.917969 23.8125 C 103.066406 23.675781 103.226562 23.539062 103.382812 23.40625 C 103.542969 23.273438 103.703125 23.136719 103.863281 23.011719 C 104.023438 22.886719 104.1875 22.765625 104.34375 22.652344 C 104.664062 22.421875 104.96875 22.21875 105.238281 22.054688 C 105.507812 21.894531 105.746094 21.769531 105.914062 21.6875 C 106.082031 21.601562 106.183594 21.5625 106.183594 21.5625 C 106.183594 21.5625 106.125 21.65625 106.015625 21.804688 C 105.90625 21.957031 105.746094 22.167969 105.539062 22.40625 C 105.332031 22.644531 105.082031 22.914062 104.804688 23.1875 C 104.664062 23.324219 104.519531 23.464844 104.367188 23.601562 C 104.214844 23.738281 104.058594 23.875 103.898438 24.007812 C 103.738281 24.140625 103.578125 24.273438 103.417969 24.402344 C 103.257812 24.527344 103.09375 24.648438 102.9375 24.761719 C 102.621094 24.992188 102.3125 25.195312 102.042969 25.355469 C 101.773438 25.519531 101.539062 25.644531 101.367188 25.726562 C 101.203125 25.8125 101.097656 25.851562 101.097656 25.851562 C 101.097656 25.851562 101.15625 25.757812 101.265625 25.609375 Z M 94.679688 31.148438 C 94.484375 31.105469 94.3125 31.050781 94.175781 31.003906 C 94.039062 30.957031 93.933594 30.90625 93.863281 30.871094 C 93.792969 30.835938 93.761719 30.8125 93.761719 30.8125 C 93.761719 30.8125 93.800781 30.808594 93.878906 30.804688 C 93.953125 30.800781 94.066406 30.785156 94.203125 30.769531 C 94.34375 30.753906 94.507812 30.730469 94.699219 30.695312 C 94.886719 30.667969 95.097656 30.628906 95.328125 30.585938 L 94.726562 30.070312 L 95.339844 28.617188 L 96.207031 29.269531 L 97.285156 28.113281 L 101.191406 29 C 101.410156 28.914062 101.621094 28.828125 101.816406 28.746094 C 102.03125 28.65625 102.230469 28.570312 102.410156 28.496094 C 102.585938 28.417969 102.742188 28.351562 102.871094 28.296875 C 103.128906 28.179688 103.277344 28.113281 103.277344 28.113281 C 103.277344 28.113281 103.1875 28.25 102.996094 28.464844 C 102.898438 28.570312 102.78125 28.699219 102.636719 28.835938 C 102.492188 28.972656 102.324219 29.125 102.132812 29.277344 C 102.039062 29.355469 101.9375 29.429688 101.828125 29.507812 C 101.722656 29.589844 101.609375 29.664062 101.492188 29.742188 C 101.433594 29.78125 101.375 29.820312 101.3125 29.859375 C 101.285156 29.878906 101.257812 29.894531 101.226562 29.910156 C 100.730469 30.90625 99.757812 32.5 98.515625 32.84375 C 96.675781 33.351562 95.761719 32.152344 95.761719 32.152344 L 95.808594 31.292969 C 95.648438 31.285156 95.496094 31.273438 95.351562 31.257812 C 95.101562 31.230469 94.878906 31.195312 94.679688 31.148438 Z M 105.875 36.925781 L 109.789062 34.542969 L 106.183594 44.105469 Z M 111.914062 23.710938 C 113.554688 23.710938 114.894531 21.359375 114.894531 18.472656 C 114.894531 15.585938 113.554688 13.238281 111.914062 13.238281 C 110.269531 13.238281 108.933594 15.585938 108.933594 18.472656 C 108.933594 21.359375 110.269531 23.710938 111.914062 23.710938 Z M 111.914062 14.878906 C 113.132812 14.878906 114.121094 16.488281 114.121094 18.472656 C 114.121094 20.457031 113.132812 22.066406 111.914062 22.066406 C 110.691406 22.066406 109.863281 20.457031 109.863281 18.472656 C 109.863281 16.488281 110.691406 14.878906 111.914062 14.878906 Z M 111.914062 14.878906 " fill-opacity="1" fill-rule="nonzero"/><path fill="#ffffff" d="M 112.03125 9.585938 C 112.121094 9.941406 112.164062 10.140625 112.164062 10.140625 C 112.164062 10.140625 112.054688 9.960938 111.882812 9.648438 C 111.804688 9.488281 111.675781 9.308594 111.554688 9.097656 C 111.523438 9.042969 111.488281 8.988281 111.457031 8.933594 C 111.417969 8.878906 111.378906 8.824219 111.339844 8.769531 C 111.261719 8.65625 111.179688 8.535156 111.097656 8.410156 C 110.910156 8.175781 110.71875 7.914062 110.488281 7.664062 C 110.382812 7.53125 110.257812 7.410156 110.132812 7.285156 C 110.070312 7.222656 110.007812 7.15625 109.941406 7.09375 C 109.875 7.035156 109.808594 6.972656 109.738281 6.910156 C 109.46875 6.664062 109.164062 6.4375 108.851562 6.21875 C 108.695312 6.105469 108.523438 6.015625 108.359375 5.910156 C 108.1875 5.820312 108.019531 5.71875 107.84375 5.636719 C 107.667969 5.554688 107.492188 5.464844 107.308594 5.394531 C 107.21875 5.359375 107.128906 5.320312 107.039062 5.285156 C 106.945312 5.253906 106.855469 5.21875 106.765625 5.1875 C 106.582031 5.121094 106.398438 5.070312 106.214844 5.011719 C 106.03125 4.964844 105.851562 4.910156 105.667969 4.871094 C 105.308594 4.78125 104.949219 4.726562 104.609375 4.667969 C 104.269531 4.625 103.945312 4.578125 103.640625 4.554688 C 103.035156 4.507812 102.527344 4.496094 102.167969 4.496094 C 101.988281 4.5 101.84375 4.5 101.746094 4.503906 C 101.648438 4.507812 101.597656 4.507812 101.597656 4.507812 C 101.597656 4.507812 101.792969 4.429688 102.144531 4.339844 C 102.324219 4.296875 102.539062 4.246094 102.789062 4.207031 C 103.042969 4.164062 103.328125 4.121094 103.640625 4.101562 C 103.957031 4.074219 104.300781 4.070312 104.664062 4.074219 C 105.023438 4.09375 105.410156 4.117188 105.804688 4.183594 C 106.195312 4.242188 106.601562 4.332031 107.003906 4.457031 C 107.410156 4.578125 107.808594 4.738281 108.195312 4.925781 C 108.390625 5.019531 108.574219 5.128906 108.765625 5.234375 C 108.945312 5.351562 109.128906 5.460938 109.296875 5.589844 C 109.464844 5.71875 109.636719 5.839844 109.789062 5.984375 C 109.941406 6.121094 110.097656 6.253906 110.230469 6.40625 C 110.300781 6.480469 110.367188 6.550781 110.4375 6.621094 C 110.503906 6.695312 110.5625 6.773438 110.625 6.847656 C 110.746094 6.996094 110.863281 7.140625 110.960938 7.296875 C 111.0625 7.449219 111.171875 7.589844 111.25 7.742188 C 111.332031 7.890625 111.414062 8.035156 111.488281 8.175781 C 111.621094 8.464844 111.75 8.71875 111.828125 8.964844 C 111.914062 9.203125 111.992188 9.410156 112.03125 9.585938 Z M 90.753906 12.457031 C 90.773438 12.382812 90.789062 12.304688 90.808594 12.226562 C 90.839844 12.070312 90.886719 11.921875 90.921875 11.773438 C 90.960938 11.628906 91.003906 11.484375 91.042969 11.347656 C 91.085938 11.214844 91.125 11.082031 91.164062 10.964844 C 91.203125 10.84375 91.242188 10.734375 91.273438 10.632812 C 91.308594 10.53125 91.339844 10.445312 91.363281 10.375 C 91.390625 10.300781 91.40625 10.242188 91.421875 10.203125 C 91.4375 10.164062 91.445312 10.140625 91.445312 10.140625 C 91.445312 10.140625 91.363281 10.183594 91.234375 10.28125 C 91.171875 10.332031 91.097656 10.390625 91.015625 10.46875 C 90.9375 10.546875 90.847656 10.636719 90.765625 10.742188 C 90.675781 10.84375 90.589844 10.964844 90.503906 11.097656 C 90.421875 11.226562 90.335938 11.371094 90.261719 11.527344 C 90.191406 11.679688 90.117188 11.84375 90.066406 12.015625 C 90.039062 12.101562 90.007812 12.1875 89.984375 12.277344 L 89.925781 12.546875 C 89.886719 12.722656 89.875 12.910156 89.859375 13.085938 C 89.847656 13.175781 89.847656 13.265625 89.851562 13.355469 C 89.855469 13.445312 89.855469 13.53125 89.863281 13.617188 C 89.867188 13.789062 89.90625 13.953125 89.929688 14.105469 C 89.953125 14.257812 90.003906 14.402344 90.046875 14.53125 C 90.09375 14.660156 90.125 14.777344 90.179688 14.875 C 90.230469 14.972656 90.277344 15.058594 90.316406 15.128906 C 90.394531 15.265625 90.449219 15.339844 90.449219 15.339844 C 90.449219 15.339844 90.460938 15.246094 90.46875 15.089844 C 90.472656 15.011719 90.480469 14.917969 90.480469 14.816406 C 90.480469 14.710938 90.5 14.589844 90.503906 14.464844 C 90.511719 14.339844 90.507812 14.207031 90.53125 14.066406 C 90.546875 13.921875 90.546875 13.777344 90.570312 13.625 C 90.59375 13.476562 90.597656 13.320312 90.628906 13.164062 C 90.660156 13.007812 90.667969 12.847656 90.710938 12.695312 Z M 92.257812 26.648438 C 92.394531 26.734375 92.535156 26.800781 92.664062 26.847656 C 92.792969 26.898438 92.90625 26.925781 92.992188 26.945312 C 93.078125 26.960938 93.132812 26.964844 93.132812 26.964844 C 93.132812 26.964844 93.125 26.910156 93.101562 26.828125 C 93.078125 26.742188 93.035156 26.628906 92.972656 26.507812 C 92.914062 26.386719 92.832031 26.253906 92.734375 26.125 C 92.683594 26.0625 92.632812 25.996094 92.574219 25.9375 C 92.515625 25.875 92.453125 25.816406 92.394531 25.757812 C 92.328125 25.703125 92.265625 25.648438 92.195312 25.597656 C 92.128906 25.546875 92.058594 25.5 91.992188 25.457031 C 91.851562 25.371094 91.714844 25.304688 91.585938 25.257812 C 91.457031 25.207031 91.339844 25.175781 91.253906 25.160156 C 91.171875 25.144531 91.117188 25.140625 91.117188 25.140625 C 91.117188 25.140625 91.125 25.195312 91.148438 25.277344 C 91.171875 25.359375 91.214844 25.472656 91.277344 25.59375 C 91.335938 25.71875 91.417969 25.847656 91.515625 25.976562 C 91.566406 26.042969 91.617188 26.105469 91.675781 26.167969 C 91.734375 26.230469 91.796875 26.289062 91.855469 26.347656 C 91.921875 26.402344 91.984375 26.457031 92.054688 26.507812 C 92.117188 26.558594 92.1875 26.605469 92.257812 26.648438 Z M 101.097656 25.851562 C 101.097656 25.851562 101.199219 25.8125 101.367188 25.726562 C 101.539062 25.644531 101.773438 25.519531 102.042969 25.355469 C 102.3125 25.191406 102.621094 24.992188 102.9375 24.761719 C 103.09375 24.648438 103.257812 24.527344 103.417969 24.398438 C 103.578125 24.273438 103.738281 24.140625 103.898438 24.007812 C 104.058594 23.875 104.214844 23.738281 104.367188 23.601562 C 104.519531 23.464844 104.664062 23.324219 104.804688 23.1875 C 105.082031 22.914062 105.332031 22.644531 105.539062 22.40625 C 105.746094 22.167969 105.90625 21.957031 106.015625 21.804688 C 106.125 21.65625 106.183594 21.5625 106.183594 21.5625 C 106.183594 21.5625 106.082031 21.601562 105.914062 21.683594 C 105.742188 21.769531 105.507812 21.894531 105.238281 22.054688 C 104.96875 22.21875 104.660156 22.421875 104.34375 22.652344 C 104.1875 22.765625 104.023438 22.886719 103.863281 23.011719 C 103.703125 23.136719 103.542969 23.273438 103.382812 23.40625 C 103.226562 23.539062 103.066406 23.675781 102.917969 23.8125 C 102.765625 23.949219 102.617188 24.089844 102.480469 24.226562 C 102.199219 24.5 101.949219 24.769531 101.746094 25.007812 C 101.539062 25.246094 101.375 25.457031 101.265625 25.609375 C 101.15625 25.757812 101.097656 25.851562 101.097656 25.851562 Z M 108.304688 29.214844 C 107.953125 29.449219 107.550781 29.734375 107.132812 30.050781 C 106.925781 30.210938 106.710938 30.378906 106.496094 30.550781 C 106.28125 30.722656 106.070312 30.902344 105.855469 31.082031 C 105.644531 31.265625 105.429688 31.449219 105.226562 31.632812 C 105.023438 31.816406 104.824219 32.003906 104.632812 32.183594 C 104.253906 32.546875 103.910156 32.894531 103.625 33.207031 C 103.335938 33.515625 103.105469 33.785156 102.949219 33.976562 C 102.792969 34.167969 102.710938 34.285156 102.710938 34.285156 C 102.710938 34.285156 102.839844 34.222656 103.050781 34.097656 C 103.269531 33.972656 103.570312 33.785156 103.921875 33.554688 C 104.273438 33.320312 104.675781 33.035156 105.09375 32.71875 C 105.300781 32.558594 105.515625 32.390625 105.730469 32.21875 C 105.945312 32.046875 106.160156 31.867188 106.375 31.6875 C 106.585938 31.503906 106.796875 31.320312 107 31.136719 C 107.207031 30.953125 107.40625 30.769531 107.59375 30.585938 C 107.976562 30.226562 108.320312 29.875 108.605469 29.566406 C 108.890625 29.253906 109.121094 28.988281 109.277344 28.792969 C 109.433594 28.601562 109.519531 28.484375 109.519531 28.484375 C 109.519531 28.484375 109.390625 28.546875 109.175781 28.671875 C 108.960938 28.796875 108.65625 28.984375 108.304688 29.214844 Z M 100.382812 19.242188 C 100.363281 19.335938 100.359375 19.425781 100.355469 19.519531 C 100.355469 19.609375 100.363281 19.699219 100.375 19.78125 C 100.390625 19.867188 100.40625 19.945312 100.433594 20.019531 C 100.457031 20.089844 100.476562 20.160156 100.511719 20.21875 C 100.570312 20.339844 100.628906 20.433594 100.679688 20.496094 C 100.726562 20.558594 100.757812 20.589844 100.757812 20.589844 C 100.757812 20.589844 100.765625 20.542969 100.769531 20.464844 C 100.773438 20.429688 100.773438 20.382812 100.773438 20.332031 C 100.777344 20.28125 100.78125 20.222656 100.78125 20.160156 C 100.78125 20.101562 100.789062 20.035156 100.789062 19.96875 C 100.789062 19.902344 100.796875 19.832031 100.800781 19.757812 C 100.804688 19.6875 100.816406 19.617188 100.820312 19.542969 C 100.832031 19.472656 100.835938 19.402344 100.855469 19.332031 C 100.863281 19.261719 100.886719 19.195312 100.898438 19.125 C 100.921875 19.0625 100.941406 18.996094 100.96875 18.9375 C 100.976562 18.90625 100.992188 18.875 101.007812 18.847656 C 101.019531 18.820312 101.03125 18.789062 101.046875 18.765625 C 101.0625 18.738281 101.078125 18.714844 101.09375 18.6875 C 101.109375 18.664062 101.128906 18.640625 101.144531 18.621094 C 101.175781 18.574219 101.210938 18.539062 101.242188 18.5 C 101.277344 18.472656 101.304688 18.4375 101.335938 18.414062 C 101.398438 18.367188 101.433594 18.339844 101.433594 18.339844 C 101.433594 18.339844 101.386719 18.328125 101.308594 18.324219 C 101.273438 18.324219 101.21875 18.328125 101.160156 18.339844 C 101.105469 18.355469 101.039062 18.367188 100.976562 18.402344 C 100.941406 18.417969 100.910156 18.4375 100.875 18.457031 C 100.84375 18.480469 100.8125 18.507812 100.777344 18.53125 C 100.742188 18.558594 100.71875 18.589844 100.683594 18.621094 C 100.652344 18.652344 100.625 18.6875 100.601562 18.726562 C 100.542969 18.800781 100.503906 18.882812 100.464844 18.96875 C 100.429688 19.058594 100.398438 19.148438 100.382812 19.242188 Z M 91.15625 21.355469 C 91.171875 21.3125 91.191406 21.265625 91.207031 21.214844 C 91.222656 21.164062 91.246094 21.113281 91.261719 21.058594 C 91.28125 21.003906 91.308594 20.949219 91.328125 20.894531 C 91.355469 20.839844 91.375 20.785156 91.40625 20.730469 L 91.445312 20.652344 L 91.492188 20.578125 C 91.503906 20.550781 91.523438 20.53125 91.539062 20.507812 C 91.558594 20.484375 91.574219 20.460938 91.59375 20.4375 C 91.625 20.394531 91.664062 20.355469 91.703125 20.316406 C 91.742188 20.28125 91.78125 20.242188 91.824219 20.210938 C 91.867188 20.175781 91.910156 20.15625 91.953125 20.125 C 91.996094 20.105469 92.035156 20.074219 92.074219 20.0625 C 92.113281 20.046875 92.144531 20.023438 92.179688 20.015625 C 92.246094 19.992188 92.28125 19.976562 92.28125 19.976562 C 92.28125 19.976562 92.246094 19.953125 92.1875 19.921875 C 92.15625 19.902344 92.113281 19.894531 92.0625 19.878906 C 92.007812 19.867188 91.953125 19.863281 91.890625 19.859375 C 91.828125 19.863281 91.753906 19.863281 91.683594 19.886719 C 91.609375 19.902344 91.535156 19.933594 91.460938 19.96875 C 91.390625 20.011719 91.316406 20.058594 91.253906 20.121094 C 91.1875 20.179688 91.136719 20.253906 91.089844 20.324219 L 91.023438 20.4375 C 91.003906 20.472656 90.992188 20.515625 90.976562 20.554688 C 90.945312 20.628906 90.933594 20.710938 90.917969 20.785156 C 90.910156 20.863281 90.902344 20.9375 90.90625 21.007812 C 90.914062 21.074219 90.914062 21.140625 90.929688 21.199219 C 90.953125 21.316406 90.988281 21.410156 91.023438 21.472656 C 91.050781 21.535156 91.074219 21.570312 91.074219 21.570312 C 91.074219 21.570312 91.09375 21.53125 91.117188 21.464844 C 91.128906 21.433594 91.140625 21.398438 91.15625 21.355469 Z M 107.542969 6.882812 C 108.925781 7.09375 109.296875 8.203125 108.871094 8.628906 C 108.445312 9.050781 107.117188 8.414062 106.878906 9.789062 C 106.644531 11.167969 105.148438 10.53125 105.148438 10.53125 C 105.148438 10.53125 105.148438 12.382812 107.542969 11.75 C 108.582031 11.472656 107.96875 10.53125 108.609375 9.789062 C 109.253906 9.050781 110.671875 10.140625 110.671875 10.140625 C 110.082031 6.578125 107.542969 6.882812 107.542969 6.882812 Z M 107.542969 6.882812 " fill-opacity="1" fill-rule="nonzero"/><g mask="url(#7cc2896f23)"><g transform="matrix(1, 0, 0, 1, 96, 33)"><g clip-path="url(#9cef2e7ae6)"><g clip-path="url(#d126697820)"><path fill="#000000" d="M 26.800781 15.097656 L 3.316406 31.390625 L 1.132812 22.523438 C 3.453125 22.226562 5.75 21.726562 7.980469 21.035156 C 9.925781 20.429688 11.824219 19.660156 13.617188 18.691406 C 15.332031 17.765625 16.917969 16.605469 18.390625 15.332031 C 20.011719 13.933594 21.492188 12.355469 22.761719 10.628906 C 23.964844 8.988281 24.984375 7.15625 25.46875 5.167969 C 25.816406 3.753906 25.929688 2.328125 25.863281 0.90625 C 25.863281 0.90625 25.863281 0.90625 25.867188 0.90625 C 25.980469 0.953125 26.097656 1.015625 26.207031 1.085938 C 26.214844 1.089844 26.222656 1.09375 26.226562 1.097656 C 26.273438 1.128906 26.324219 1.160156 26.371094 1.195312 C 26.378906 1.203125 26.390625 1.210938 26.398438 1.21875 C 26.449219 1.253906 26.496094 1.292969 26.546875 1.335938 C 26.550781 1.339844 26.554688 1.339844 26.558594 1.34375 C 26.609375 1.390625 26.660156 1.441406 26.714844 1.492188 C 26.722656 1.5 26.730469 1.511719 26.738281 1.519531 C 26.777344 1.5625 26.820312 1.605469 26.859375 1.652344 C 26.875 1.667969 26.890625 1.683594 26.902344 1.703125 C 26.9375 1.742188 26.972656 1.789062 27.007812 1.832031 C 27.023438 1.851562 27.035156 1.867188 27.050781 1.886719 C 27.097656 1.949219 27.144531 2.015625 27.191406 2.082031 C 27.191406 2.085938 27.191406 2.085938 27.191406 2.085938 C 29.707031 5.878906 26.800781 15.097656 26.800781 15.097656 Z M 26.800781 15.097656 " fill-opacity="1" fill-rule="nonzero"/></g></g></g></g><path fill="#000000" d="M 124.125 34.472656 C 123.292969 33.222656 122.179688 32.589844 120.8125 32.589844 C 119.734375 32.589844 118.691406 32.984375 117.773438 33.335938 C 117.136719 33.574219 116.480469 33.824219 116.070312 33.824219 C 115.910156 33.824219 115.855469 33.804688 115.757812 33.648438 L 115.746094 33.628906 C 114.457031 31.671875 113.824219 29.511719 113.515625 27.214844 C 115.363281 24.824219 116.726562 22.246094 116.835938 19.785156 C 117.132812 13.203125 115.769531 8.289062 112.785156 5.1875 C 110.585938 2.898438 107.546875 1.691406 104 1.691406 C 99.332031 1.691406 93.992188 3.890625 90.707031 7.160156 C 88.816406 9.042969 87.820312 11.050781 87.824219 12.972656 C 87.832031 17.058594 88.558594 19.128906 89.09375 20.640625 C 89.109375 20.6875 89.125 20.730469 89.140625 20.777344 L 88.941406 20.902344 C 88.941406 20.902344 89.066406 21.015625 89.28125 21.179688 C 89.472656 21.742188 89.613281 22.246094 89.660156 22.816406 C 89.746094 23.902344 89.699219 24.460938 89.652344 25.003906 C 89.609375 25.535156 89.558594 26.089844 89.664062 26.960938 C 89.898438 28.984375 94.097656 35.671875 94.816406 36.652344 C 95.433594 37.484375 96.625 37.90625 98.363281 37.90625 C 99.863281 37.90625 101.554688 37.570312 102.472656 37.089844 C 102.558594 37.046875 102.695312 36.964844 102.871094 36.855469 C 103.589844 39.730469 103.335938 40.507812 103.28125 40.628906 C 102.425781 42.183594 97.609375 45.617188 94.765625 47.425781 L 94.089844 47.855469 L 98.621094 66.230469 L 123.753906 48.792969 L 123.867188 48.429688 C 124.179688 47.433594 126.851562 38.589844 124.125 34.472656 Z M 101.953125 36.109375 C 100.617188 36.808594 96.660156 37.269531 95.71875 35.992188 C 95.109375 35.167969 93.300781 32.246094 92.046875 29.851562 C 91.972656 29.710938 91.898438 29.574219 91.828125 29.4375 L 93.132812 29.742188 L 91.054688 27.769531 C 90.96875 27.554688 90.898438 27.351562 90.847656 27.183594 C 90.808594 27.050781 90.785156 26.929688 90.773438 26.832031 C 90.761719 26.726562 90.75 26.628906 90.742188 26.53125 C 90.640625 25.300781 90.898438 24.898438 90.804688 23.167969 C 90.800781 23.113281 90.796875 23.058594 90.792969 23.003906 L 92.386719 23.359375 L 92.492188 22.898438 L 90.75 22.503906 C 90.75 22.496094 90.746094 22.484375 90.746094 22.476562 C 90.738281 22.417969 90.730469 22.355469 90.722656 22.296875 C 90.71875 22.285156 90.71875 22.277344 90.71875 22.265625 C 90.703125 22.167969 90.683594 22.070312 90.664062 21.976562 C 90.847656 22.050781 91.042969 22.117188 91.242188 22.167969 C 92.058594 22.371094 93.34375 22.523438 94.164062 22.609375 C 94.101562 22.898438 94.039062 23.191406 93.980469 23.476562 C 93.785156 24.394531 93.601562 25.234375 93.503906 25.617188 C 93.238281 26.671875 94.304688 27.941406 95.261719 27.625 C 96.21875 27.308594 99.039062 26.089844 99.039062 26.089844 L 97.773438 25.351562 L 94.703125 25.617188 L 95.320312 21.636719 L 95.582031 19.976562 L 95.09375 19.976562 C 94.828125 19.53125 94.527344 19.1875 94.1875 18.953125 C 94.214844 18.636719 94.261719 17.78125 94.019531 17.566406 C 93.828125 17.402344 93.242188 17.28125 92.542969 17.195312 C 92.328125 17.171875 92.101562 17.148438 91.871094 17.125 C 91.476562 17.089844 91.074219 17.066406 90.714844 17.046875 C 89.96875 17.003906 89.394531 16.992188 89.394531 16.992188 L 92.558594 18.371094 C 92.390625 18.351562 92.214844 18.339844 92.039062 18.339844 C 91.457031 18.339844 91.023438 18.445312 90.976562 18.457031 L 90.816406 18.496094 L 89.980469 19.023438 L 90.238281 19.425781 L 91.007812 18.9375 L 91.09375 18.917969 C 91.113281 18.914062 91.507812 18.8125 92.039062 18.8125 C 92.753906 18.8125 93.394531 18.992188 93.894531 19.332031 C 94.179688 19.519531 94.4375 19.808594 94.664062 20.191406 C 94.625 20.382812 94.5625 20.695312 94.480469 21.078125 C 94.273438 20.5625 93.980469 20.054688 93.582031 19.789062 C 92.582031 19.113281 91.234375 19.457031 91.234375 19.457031 L 90.109375 20.164062 C 90.089844 20.105469 90.070312 20.046875 90.046875 19.988281 C 90.046875 19.984375 90.046875 19.984375 90.046875 19.984375 C 90.03125 19.945312 90.019531 19.910156 90.007812 19.871094 C 89.996094 19.832031 89.980469 19.792969 89.96875 19.757812 C 89.957031 19.726562 89.945312 19.695312 89.9375 19.664062 C 89.917969 19.613281 89.902344 19.558594 89.882812 19.507812 C 89.875 19.484375 89.867188 19.460938 89.859375 19.4375 C 89.839844 19.371094 89.816406 19.300781 89.796875 19.234375 C 89.785156 19.207031 89.777344 19.175781 89.769531 19.148438 C 89.753906 19.097656 89.738281 19.046875 89.722656 18.996094 C 89.710938 18.964844 89.703125 18.933594 89.695312 18.90625 C 89.675781 18.84375 89.65625 18.777344 89.640625 18.714844 C 89.632812 18.695312 89.628906 18.675781 89.625 18.65625 C 89.601562 18.578125 89.578125 18.496094 89.554688 18.410156 C 89.546875 18.382812 89.539062 18.351562 89.53125 18.320312 C 89.515625 18.257812 89.503906 18.199219 89.488281 18.136719 C 89.480469 18.105469 89.46875 18.070312 89.460938 18.039062 C 89.445312 17.964844 89.425781 17.886719 89.410156 17.808594 C 89.40625 17.792969 89.402344 17.773438 89.398438 17.753906 C 89.375 17.660156 89.355469 17.5625 89.335938 17.464844 C 89.332031 17.429688 89.324219 17.398438 89.316406 17.363281 C 89.304688 17.292969 89.289062 17.21875 89.277344 17.144531 C 89.269531 17.109375 89.261719 17.074219 89.257812 17.035156 C 89.242188 16.945312 89.226562 16.855469 89.210938 16.761719 C 89.207031 16.742188 89.203125 16.722656 89.203125 16.703125 C 89.203125 16.703125 89.199219 16.699219 89.199219 16.699219 C 89.046875 15.695312 88.941406 14.484375 88.941406 12.972656 C 88.941406 12.941406 88.941406 12.910156 88.945312 12.878906 C 88.945312 12.832031 88.945312 12.789062 88.949219 12.742188 C 88.949219 12.703125 88.953125 12.664062 88.957031 12.628906 C 88.960938 12.582031 88.960938 12.539062 88.96875 12.496094 C 88.972656 12.457031 88.976562 12.421875 88.980469 12.382812 C 88.988281 12.335938 88.992188 12.289062 89 12.246094 C 89.007812 12.210938 89.011719 12.175781 89.019531 12.140625 C 89.03125 12.070312 89.042969 12.003906 89.058594 11.9375 C 89.066406 11.902344 89.074219 11.867188 89.085938 11.832031 C 89.097656 11.773438 89.113281 11.71875 89.125 11.664062 C 89.136719 11.628906 89.148438 11.59375 89.15625 11.558594 C 89.171875 11.511719 89.1875 11.464844 89.203125 11.417969 C 89.214844 11.382812 89.226562 11.34375 89.238281 11.308594 C 89.253906 11.261719 89.273438 11.214844 89.289062 11.164062 C 89.304688 11.132812 89.316406 11.097656 89.328125 11.0625 C 89.359375 10.988281 89.390625 10.910156 89.425781 10.832031 C 89.4375 10.804688 89.453125 10.777344 89.464844 10.746094 C 89.488281 10.695312 89.511719 10.640625 89.539062 10.589844 C 89.554688 10.554688 89.574219 10.519531 89.589844 10.484375 C 89.617188 10.4375 89.640625 10.390625 89.664062 10.34375 C 89.683594 10.308594 89.703125 10.273438 89.722656 10.238281 C 89.75 10.1875 89.78125 10.132812 89.8125 10.078125 C 89.828125 10.054688 89.84375 10.027344 89.859375 10 C 89.90625 9.917969 89.957031 9.839844 90.007812 9.761719 C 90.019531 9.742188 90.03125 9.722656 90.046875 9.703125 C 90.085938 9.640625 90.128906 9.578125 90.171875 9.515625 C 90.1875 9.492188 90.207031 9.46875 90.222656 9.441406 C 90.265625 9.382812 90.308594 9.320312 90.355469 9.257812 C 90.371094 9.242188 90.382812 9.222656 90.398438 9.203125 C 90.523438 9.035156 90.65625 8.867188 90.796875 8.703125 C 90.839844 8.648438 90.890625 8.59375 90.9375 8.542969 C 90.941406 8.539062 90.941406 8.535156 90.945312 8.53125 C 90.957031 8.515625 90.96875 8.503906 90.980469 8.492188 C 90.996094 8.472656 91.015625 8.453125 91.03125 8.4375 C 91.589844 7.816406 92.242188 7.222656 92.96875 6.664062 C 92.972656 6.664062 92.972656 6.664062 92.972656 6.664062 C 93.101562 6.5625 93.234375 6.464844 93.371094 6.367188 C 93.375 6.363281 93.382812 6.359375 93.390625 6.355469 C 93.65625 6.164062 93.929688 5.980469 94.210938 5.800781 C 94.222656 5.792969 94.234375 5.785156 94.246094 5.777344 C 94.378906 5.691406 94.519531 5.605469 94.65625 5.523438 C 94.671875 5.515625 94.691406 5.503906 94.707031 5.496094 C 94.992188 5.324219 95.285156 5.160156 95.582031 5.003906 C 95.59375 4.996094 95.605469 4.992188 95.617188 4.984375 C 95.761719 4.910156 95.910156 4.835938 96.058594 4.761719 C 96.078125 4.753906 96.097656 4.742188 96.113281 4.734375 C 96.265625 4.660156 96.417969 4.585938 96.570312 4.515625 C 96.574219 4.515625 96.578125 4.515625 96.578125 4.515625 C 96.738281 4.441406 96.894531 4.371094 97.054688 4.304688 C 97.0625 4.300781 97.070312 4.296875 97.078125 4.292969 C 97.234375 4.226562 97.390625 4.164062 97.550781 4.101562 C 97.566406 4.09375 97.585938 4.085938 97.601562 4.078125 C 97.761719 4.019531 97.921875 3.957031 98.082031 3.898438 C 98.089844 3.898438 98.09375 3.894531 98.101562 3.890625 C 98.265625 3.832031 98.429688 3.777344 98.59375 3.722656 C 98.597656 3.71875 98.601562 3.71875 98.605469 3.71875 C 98.625 3.710938 98.644531 3.703125 98.667969 3.695312 C 98.742188 3.671875 98.820312 3.648438 98.894531 3.625 C 98.921875 3.617188 98.949219 3.605469 98.972656 3.597656 C 99.046875 3.578125 99.117188 3.554688 99.191406 3.535156 C 99.234375 3.519531 99.277344 3.507812 99.320312 3.496094 C 99.386719 3.476562 99.457031 3.457031 99.523438 3.4375 C 99.574219 3.425781 99.621094 3.410156 99.671875 3.398438 C 99.734375 3.378906 99.800781 3.363281 99.863281 3.347656 C 99.921875 3.332031 99.976562 3.320312 100.03125 3.304688 C 100.089844 3.289062 100.152344 3.277344 100.210938 3.261719 C 100.320312 3.234375 100.429688 3.210938 100.539062 3.1875 C 100.582031 3.175781 100.625 3.167969 100.671875 3.160156 C 100.746094 3.144531 100.820312 3.128906 100.898438 3.113281 C 100.945312 3.105469 100.992188 3.09375 101.039062 3.085938 C 101.113281 3.074219 101.1875 3.058594 101.257812 3.046875 C 101.304688 3.039062 101.351562 3.03125 101.398438 3.023438 C 101.476562 3.007812 101.554688 2.996094 101.628906 2.984375 C 101.671875 2.980469 101.714844 2.972656 101.757812 2.964844 C 101.851562 2.953125 101.945312 2.941406 102.039062 2.929688 C 102.0625 2.925781 102.085938 2.921875 102.113281 2.917969 C 102.234375 2.902344 102.359375 2.890625 102.480469 2.878906 C 102.488281 2.875 102.496094 2.875 102.507812 2.875 C 102.617188 2.863281 102.730469 2.855469 102.84375 2.847656 C 102.871094 2.84375 102.898438 2.84375 102.925781 2.839844 C 103.023438 2.832031 103.117188 2.828125 103.210938 2.824219 C 103.242188 2.820312 103.273438 2.820312 103.300781 2.816406 C 103.398438 2.8125 103.496094 2.808594 103.59375 2.808594 C 103.617188 2.804688 103.640625 2.804688 103.664062 2.804688 C 104.039062 2.796875 104.40625 2.800781 104.777344 2.824219 C 104.789062 2.824219 104.800781 2.824219 104.816406 2.824219 C 104.925781 2.832031 105.035156 2.839844 105.140625 2.847656 C 105.160156 2.847656 105.175781 2.851562 105.195312 2.851562 C 105.304688 2.863281 105.414062 2.871094 105.527344 2.886719 C 105.535156 2.886719 105.546875 2.886719 105.554688 2.890625 C 105.925781 2.929688 106.296875 2.992188 106.65625 3.066406 C 106.664062 3.066406 106.667969 3.066406 106.671875 3.070312 C 106.785156 3.09375 106.902344 3.117188 107.015625 3.148438 C 107.023438 3.148438 107.03125 3.152344 107.042969 3.152344 C 107.160156 3.183594 107.273438 3.210938 107.386719 3.242188 C 107.390625 3.242188 107.390625 3.246094 107.394531 3.246094 C 107.753906 3.34375 108.105469 3.464844 108.453125 3.601562 C 108.457031 3.601562 108.457031 3.601562 108.457031 3.601562 C 108.570312 3.644531 108.679688 3.691406 108.792969 3.742188 C 108.796875 3.742188 108.804688 3.746094 108.808594 3.746094 C 109.265625 3.945312 109.707031 4.179688 110.132812 4.449219 C 110.238281 4.515625 110.339844 4.582031 110.441406 4.652344 C 110.445312 4.65625 110.453125 4.660156 110.457031 4.664062 C 110.871094 4.949219 111.273438 5.273438 111.652344 5.632812 C 111.65625 5.636719 111.65625 5.636719 111.660156 5.640625 C 111.75 5.726562 111.839844 5.816406 111.929688 5.90625 C 111.9375 5.914062 111.941406 5.917969 111.945312 5.925781 C 112.316406 6.304688 112.664062 6.722656 112.988281 7.179688 C 112.992188 7.1875 112.996094 7.195312 113 7.203125 C 113.078125 7.308594 113.148438 7.417969 113.222656 7.527344 C 113.230469 7.539062 113.238281 7.550781 113.246094 7.5625 C 113.320312 7.675781 113.390625 7.792969 113.464844 7.914062 C 113.464844 7.914062 113.46875 7.917969 113.46875 7.917969 C 113.691406 8.292969 113.902344 8.691406 114.097656 9.113281 C 114.105469 9.128906 114.113281 9.144531 114.121094 9.160156 C 114.175781 9.28125 114.230469 9.410156 114.285156 9.535156 C 114.292969 9.554688 114.300781 9.574219 114.308594 9.59375 C 114.367188 9.726562 114.421875 9.863281 114.472656 10 C 114.476562 10.007812 114.480469 10.015625 114.480469 10.023438 C 114.484375 10.023438 114.484375 10.027344 114.484375 10.03125 C 114.601562 10.335938 114.710938 10.652344 114.8125 10.980469 C 114.8125 10.984375 114.816406 10.988281 114.816406 10.992188 C 114.863281 11.144531 114.910156 11.296875 114.953125 11.457031 C 114.960938 11.484375 114.96875 11.511719 114.976562 11.539062 C 115.011719 11.675781 115.050781 11.816406 115.085938 11.957031 C 115.09375 11.988281 115.101562 12.023438 115.109375 12.054688 C 115.144531 12.203125 115.179688 12.351562 115.210938 12.503906 C 115.214844 12.519531 115.21875 12.535156 115.222656 12.550781 C 115.226562 12.558594 115.226562 12.566406 115.226562 12.570312 C 115.304688 12.925781 115.371094 13.292969 115.433594 13.671875 C 115.4375 13.695312 115.441406 13.722656 115.445312 13.746094 C 115.46875 13.902344 115.492188 14.066406 115.515625 14.230469 C 115.523438 14.277344 115.527344 14.324219 115.535156 14.371094 C 115.550781 14.515625 115.570312 14.664062 115.585938 14.8125 C 115.59375 14.863281 115.597656 14.914062 115.601562 14.964844 C 115.621094 15.121094 115.636719 15.28125 115.648438 15.441406 C 115.652344 15.484375 115.65625 15.523438 115.660156 15.566406 C 115.691406 15.972656 115.71875 16.390625 115.734375 16.820312 C 115.738281 16.871094 115.738281 16.921875 115.738281 16.972656 C 115.746094 17.132812 115.75 17.296875 115.753906 17.460938 C 115.753906 17.53125 115.753906 17.601562 115.753906 17.671875 C 115.757812 17.824219 115.757812 17.972656 115.757812 18.125 C 115.757812 18.203125 115.757812 18.277344 115.757812 18.355469 C 115.753906 18.511719 115.753906 18.671875 115.75 18.832031 C 115.746094 18.902344 115.746094 18.972656 115.746094 19.042969 C 115.738281 19.265625 115.730469 19.492188 115.722656 19.71875 C 115.71875 19.726562 115.71875 19.730469 115.71875 19.738281 C 115.714844 19.839844 115.707031 19.941406 115.699219 20.042969 C 115.695312 20.066406 115.695312 20.09375 115.691406 20.117188 C 115.683594 20.199219 115.671875 20.277344 115.660156 20.359375 C 115.65625 20.382812 115.65625 20.410156 115.648438 20.4375 C 115.636719 20.523438 115.621094 20.609375 115.605469 20.695312 C 115.601562 20.710938 115.601562 20.730469 115.597656 20.746094 C 115.554688 20.960938 115.503906 21.175781 115.445312 21.394531 C 115.441406 21.402344 115.4375 21.414062 115.433594 21.421875 C 115.40625 21.523438 115.378906 21.621094 115.347656 21.71875 C 115.339844 21.734375 115.335938 21.746094 115.332031 21.761719 C 115.296875 21.867188 115.261719 21.972656 115.222656 22.078125 C 115.222656 22.078125 115.222656 22.078125 115.222656 22.082031 C 115.101562 22.417969 114.957031 22.757812 114.796875 23.09375 C 114.796875 23.101562 114.792969 23.105469 114.792969 23.109375 C 113.953125 24.875 112.632812 26.652344 111.144531 28.300781 C 110.144531 29.40625 109.070312 30.453125 108.023438 31.402344 C 108.015625 31.410156 108.007812 31.417969 108 31.421875 C 107.914062 31.503906 107.824219 31.582031 107.738281 31.660156 C 107.71875 31.675781 107.695312 31.695312 107.675781 31.714844 C 107.59375 31.789062 107.511719 31.859375 107.429688 31.933594 C 107.40625 31.953125 107.382812 31.972656 107.359375 31.992188 C 107.277344 32.066406 107.195312 32.136719 107.113281 32.210938 C 107.101562 32.214844 107.09375 32.222656 107.085938 32.230469 C 106.898438 32.394531 106.710938 32.550781 106.527344 32.707031 C 106.527344 32.707031 106.523438 32.710938 106.523438 32.710938 C 106.453125 32.769531 106.382812 32.828125 106.3125 32.886719 C 106.277344 32.914062 106.242188 32.945312 106.207031 32.976562 C 106.144531 33.027344 106.082031 33.078125 106.019531 33.128906 C 105.976562 33.164062 105.933594 33.199219 105.890625 33.234375 C 105.832031 33.28125 105.777344 33.328125 105.71875 33.371094 C 105.671875 33.410156 105.625 33.449219 105.582031 33.484375 C 105.527344 33.527344 105.476562 33.570312 105.421875 33.613281 C 105.367188 33.65625 105.308594 33.703125 105.253906 33.746094 C 105.195312 33.792969 105.136719 33.839844 105.078125 33.882812 C 105.003906 33.941406 104.933594 34 104.859375 34.054688 C 104.820312 34.085938 104.785156 34.113281 104.75 34.140625 C 104.6875 34.1875 104.632812 34.234375 104.574219 34.277344 C 104.539062 34.304688 104.503906 34.328125 104.46875 34.355469 C 104.410156 34.402344 104.351562 34.445312 104.289062 34.492188 C 104.261719 34.511719 104.234375 34.535156 104.203125 34.554688 C 104.136719 34.609375 104.066406 34.660156 104 34.710938 C 103.984375 34.722656 103.964844 34.734375 103.949219 34.746094 C 102.960938 35.480469 102.226562 35.964844 101.953125 36.109375 Z M 90.90625 21.007812 C 90.902344 20.9375 90.910156 20.863281 90.917969 20.785156 C 90.933594 20.710938 90.945312 20.628906 90.976562 20.554688 C 90.992188 20.515625 91.003906 20.472656 91.023438 20.4375 L 91.089844 20.324219 C 91.136719 20.253906 91.1875 20.179688 91.253906 20.121094 C 91.316406 20.058594 91.390625 20.011719 91.460938 19.96875 C 91.535156 19.933594 91.609375 19.902344 91.683594 19.886719 C 91.753906 19.863281 91.828125 19.863281 91.890625 19.859375 C 91.953125 19.863281 92.007812 19.867188 92.0625 19.878906 C 92.113281 19.894531 92.15625 19.902344 92.1875 19.921875 C 92.246094 19.953125 92.28125 19.976562 92.28125 19.976562 C 92.28125 19.976562 92.246094 19.992188 92.179688 20.015625 C 92.144531 20.023438 92.113281 20.046875 92.074219 20.0625 C 92.035156 20.074219 91.996094 20.105469 91.953125 20.125 C 91.910156 20.15625 91.867188 20.175781 91.824219 20.210938 C 91.78125 20.242188 91.742188 20.28125 91.703125 20.316406 C 91.664062 20.355469 91.625 20.394531 91.59375 20.4375 C 91.574219 20.460938 91.558594 20.484375 91.539062 20.507812 C 91.523438 20.53125 91.503906 20.550781 91.492188 20.578125 L 91.445312 20.652344 L 91.40625 20.730469 C 91.375 20.785156 91.355469 20.839844 91.328125 20.894531 C 91.308594 20.949219 91.28125 21.003906 91.261719 21.058594 C 91.246094 21.113281 91.21875 21.164062 91.207031 21.214844 C 91.191406 21.265625 91.171875 21.3125 91.15625 21.355469 C 91.140625 21.398438 91.128906 21.433594 91.117188 21.46875 C 91.09375 21.53125 91.074219 21.570312 91.074219 21.570312 C 91.074219 21.570312 91.050781 21.535156 91.023438 21.472656 C 90.988281 21.410156 90.953125 21.316406 90.929688 21.199219 C 90.914062 21.140625 90.910156 21.078125 90.90625 21.007812 Z M 95.367188 48.363281 C 95.367188 48.363281 98.59375 46.3125 101.203125 44.226562 L 102.542969 45.75 L 102.109375 48.820312 L 103.988281 45.128906 L 101.273438 44.167969 C 102.429688 43.238281 103.457031 42.304688 104.011719 41.546875 C 104.066406 41.476562 104.113281 41.40625 104.15625 41.339844 C 104.160156 41.335938 104.160156 41.332031 104.164062 41.328125 C 104.207031 41.261719 104.242188 41.199219 104.277344 41.136719 C 104.453125 40.789062 104.507812 40.269531 104.476562 39.640625 C 104.472656 39.515625 104.460938 39.382812 104.449219 39.25 C 104.425781 38.980469 104.386719 38.699219 104.339844 38.402344 C 104.226562 37.710938 104.054688 36.957031 103.851562 36.191406 C 105.890625 34.753906 109.625 31.820312 112.570312 28.378906 C 112.945312 30.441406 113.613281 32.417969 114.8125 34.238281 C 114.820312 34.25 114.828125 34.261719 114.835938 34.277344 C 114.851562 34.300781 114.871094 34.328125 114.890625 34.355469 C 114.898438 34.367188 114.910156 34.378906 114.917969 34.390625 C 114.9375 34.414062 114.953125 34.4375 114.972656 34.457031 C 114.980469 34.46875 114.992188 34.480469 115 34.488281 C 115.019531 34.511719 115.039062 34.53125 115.0625 34.550781 C 115.070312 34.5625 115.078125 34.566406 115.085938 34.574219 C 115.109375 34.597656 115.128906 34.617188 115.152344 34.636719 C 115.160156 34.640625 115.167969 34.644531 115.175781 34.652344 C 115.199219 34.671875 115.222656 34.691406 115.25 34.707031 C 115.253906 34.710938 115.261719 34.714844 115.265625 34.71875 C 115.292969 34.734375 115.324219 34.753906 115.351562 34.769531 C 115.355469 34.769531 115.359375 34.773438 115.363281 34.773438 C 115.394531 34.792969 115.425781 34.804688 115.457031 34.820312 C 115.460938 34.820312 115.460938 34.820312 115.464844 34.824219 C 115.496094 34.835938 115.53125 34.851562 115.566406 34.859375 C 117.136719 35.382812 119.765625 33.007812 121.863281 33.90625 C 121.867188 33.90625 121.867188 33.90625 121.867188 33.90625 C 121.980469 33.957031 122.097656 34.015625 122.210938 34.085938 C 122.214844 34.089844 122.222656 34.09375 122.226562 34.097656 C 122.277344 34.128906 122.324219 34.160156 122.371094 34.195312 C 122.378906 34.203125 122.390625 34.210938 122.398438 34.21875 C 122.449219 34.253906 122.496094 34.292969 122.546875 34.335938 C 122.550781 34.339844 122.554688 34.34375 122.558594 34.347656 C 122.609375 34.390625 122.660156 34.441406 122.714844 34.492188 C 122.722656 34.5 122.730469 34.511719 122.738281 34.519531 C 122.777344 34.5625 122.820312 34.605469 122.859375 34.652344 C 122.875 34.667969 122.890625 34.6875 122.90625 34.703125 C 122.9375 34.746094 122.972656 34.789062 123.007812 34.832031 C 123.023438 34.851562 123.035156 34.867188 123.050781 34.886719 C 123.097656 34.949219 123.144531 35.015625 123.191406 35.085938 C 125.707031 38.882812 122.800781 48.097656 122.800781 48.097656 L 99.316406 64.390625 Z M 106.183594 17.703125 L 102.921875 17.179688 C 102.921875 17.179688 101.191406 17.351562 100.238281 18.351562 C 99.289062 19.351562 99.679688 21.5625 99.679688 21.5625 C 99.679688 21.5625 102.492188 20.496094 103.894531 19.734375 C 105.296875 18.972656 106.183594 17.703125 106.183594 17.703125 Z M 101.335938 18.414062 C 101.304688 18.4375 101.277344 18.472656 101.242188 18.5 C 101.214844 18.539062 101.175781 18.574219 101.144531 18.621094 C 101.128906 18.640625 101.109375 18.664062 101.09375 18.6875 C 101.078125 18.714844 101.0625 18.738281 101.046875 18.765625 C 101.03125 18.789062 101.019531 18.820312 101.007812 18.847656 C 100.992188 18.875 100.976562 18.90625 100.96875 18.9375 C 100.941406 18.996094 100.921875 19.0625 100.898438 19.125 C 100.886719 19.195312 100.863281 19.257812 100.855469 19.332031 C 100.835938 19.398438 100.832031 19.472656 100.820312 19.542969 C 100.816406 19.617188 100.804688 19.6875 100.800781 19.757812 C 100.796875 19.832031 100.789062 19.902344 100.789062 19.96875 C 100.789062 20.035156 100.78125 20.101562 100.78125 20.160156 C 100.78125 20.222656 100.777344 20.28125 100.773438 20.332031 C 100.773438 20.382812 100.773438 20.429688 100.769531 20.464844 C 100.765625 20.542969 100.757812 20.589844 100.757812 20.589844 C 100.757812 20.589844 100.726562 20.554688 100.679688 20.496094 C 100.628906 20.433594 100.570312 20.339844 100.511719 20.21875 C 100.480469 20.160156 100.457031 20.089844 100.433594 20.019531 C 100.40625 19.945312 100.390625 19.863281 100.375 19.78125 C 100.363281 19.699219 100.355469 19.609375 100.355469 19.519531 C 100.359375 19.425781 100.363281 19.335938 100.382812 19.242188 C 100.398438 19.148438 100.429688 19.058594 100.464844 18.96875 C 100.503906 18.882812 100.542969 18.800781 100.601562 18.726562 C 100.625 18.6875 100.652344 18.652344 100.683594 18.621094 C 100.71875 18.589844 100.742188 18.554688 100.777344 18.53125 C 100.8125 18.503906 100.84375 18.480469 100.875 18.457031 C 100.910156 18.4375 100.941406 18.417969 100.976562 18.402344 C 101.039062 18.367188 101.105469 18.355469 101.160156 18.339844 C 101.21875 18.328125 101.273438 18.324219 101.3125 18.324219 C 101.386719 18.328125 101.433594 18.339844 101.433594 18.339844 C 101.433594 18.339844 101.398438 18.367188 101.335938 18.414062 Z M 102.410156 28.496094 C 102.230469 28.570312 102.03125 28.65625 101.816406 28.746094 C 101.621094 28.828125 101.410156 28.914062 101.191406 29 L 97.285156 28.113281 L 96.207031 29.269531 L 95.335938 28.617188 L 94.726562 30.070312 L 95.328125 30.585938 C 95.097656 30.628906 94.886719 30.667969 94.695312 30.695312 C 94.507812 30.730469 94.34375 30.753906 94.203125 30.769531 C 94.066406 30.785156 93.953125 30.800781 93.878906 30.804688 C 93.800781 30.808594 93.761719 30.8125 93.761719 30.8125 C 93.761719 30.8125 93.792969 30.835938 93.863281 30.871094 C 93.933594 30.90625 94.039062 30.957031 94.175781 31.003906 C 94.3125 31.050781 94.484375 31.105469 94.679688 31.148438 C 94.878906 31.195312 95.101562 31.230469 95.347656 31.257812 C 95.496094 31.273438 95.648438 31.285156 95.808594 31.292969 L 95.761719 32.152344 C 95.761719 32.152344 96.675781 33.351562 98.515625 32.84375 C 99.757812 32.5 100.726562 30.90625 101.226562 29.910156 C 101.253906 29.894531 101.285156 29.878906 101.3125 29.859375 C 101.371094 29.820312 101.433594 29.78125 101.492188 29.742188 C 101.609375 29.664062 101.722656 29.589844 101.828125 29.507812 C 101.9375 29.429688 102.039062 29.355469 102.132812 29.277344 C 102.324219 29.125 102.492188 28.972656 102.636719 28.835938 C 102.78125 28.699219 102.898438 28.570312 102.996094 28.464844 C 103.183594 28.25 103.277344 28.113281 103.277344 28.113281 C 103.277344 28.113281 103.128906 28.179688 102.871094 28.296875 C 102.742188 28.351562 102.585938 28.417969 102.410156 28.496094 Z M 97.566406 30.792969 C 97.535156 30.808594 97.492188 30.828125 97.445312 30.84375 C 97.398438 30.867188 97.34375 30.882812 97.28125 30.894531 C 97.21875 30.90625 97.152344 30.917969 97.078125 30.929688 C 97.007812 30.929688 96.929688 30.933594 96.851562 30.929688 C 96.769531 30.925781 96.6875 30.910156 96.601562 30.890625 C 96.519531 30.875 96.4375 30.839844 96.355469 30.8125 C 96.277344 30.769531 96.195312 30.734375 96.125 30.683594 C 96.054688 30.632812 95.984375 30.582031 95.929688 30.523438 C 95.871094 30.464844 95.824219 30.402344 95.777344 30.339844 C 95.738281 30.277344 95.703125 30.21875 95.675781 30.15625 C 95.648438 30.097656 95.632812 30.042969 95.621094 29.992188 C 95.605469 29.941406 95.601562 29.894531 95.597656 29.859375 C 95.589844 29.785156 95.59375 29.742188 95.59375 29.742188 C 95.59375 29.742188 95.625 29.769531 95.679688 29.816406 C 95.734375 29.863281 95.804688 29.929688 95.898438 29.992188 C 95.9375 30.027344 95.988281 30.058594 96.039062 30.09375 C 96.089844 30.128906 96.140625 30.164062 96.195312 30.195312 C 96.25 30.230469 96.308594 30.257812 96.367188 30.289062 C 96.425781 30.320312 96.488281 30.34375 96.546875 30.375 C 96.609375 30.398438 96.671875 30.425781 96.734375 30.449219 C 96.800781 30.46875 96.859375 30.496094 96.925781 30.515625 C 96.988281 30.53125 97.050781 30.550781 97.109375 30.570312 C 97.171875 30.585938 97.230469 30.601562 97.285156 30.617188 C 97.339844 30.636719 97.390625 30.652344 97.4375 30.664062 C 97.484375 30.675781 97.527344 30.6875 97.558594 30.699219 C 97.628906 30.722656 97.671875 30.738281 97.671875 30.738281 C 97.671875 30.738281 97.632812 30.761719 97.566406 30.792969 Z M 99.128906 21.65625 L 98.65625 21.738281 C 98.582031 21.3125 98.28125 19.21875 99.277344 17.886719 L 98.148438 18.792969 C 98.148438 18.792969 97.972656 17.304688 98.347656 16.890625 C 98.449219 16.777344 98.644531 16.636719 98.90625 16.476562 C 99.074219 16.371094 99.269531 16.261719 99.488281 16.144531 C 101.191406 15.234375 104.078125 14.035156 104.089844 14.03125 L 100.628906 16.804688 C 101.632812 16.289062 102.664062 16.167969 102.820312 16.152344 L 102.953125 16.136719 L 107.453125 16.863281 L 107.367188 17.125 C 107.210938 17.621094 106.980469 18.074219 106.710938 18.484375 C 105.398438 20.476562 103.097656 21.449219 102.984375 21.496094 L 102.890625 21.273438 L 102.796875 21.058594 C 102.828125 21.046875 105.84375 19.765625 106.820312 17.242188 L 102.941406 16.617188 L 102.871094 16.625 C 102.667969 16.648438 100.894531 16.851562 99.832031 17.96875 C 98.726562 19.132812 99.082031 21.402344 99.128906 21.65625 Z M 109.066406 46.460938 L 106.578125 48.785156 L 107.84375 45.128906 L 117.585938 42.71875 Z M 99.835938 34.421875 C 99.90625 34.496094 99.945312 34.542969 99.945312 34.542969 C 99.945312 34.542969 99.882812 34.542969 99.78125 34.535156 C 99.730469 34.53125 99.667969 34.527344 99.597656 34.519531 C 99.53125 34.507812 99.457031 34.496094 99.375 34.492188 C 99.292969 34.480469 99.207031 34.46875 99.117188 34.453125 C 99.027344 34.4375 98.929688 34.433594 98.835938 34.417969 C 98.738281 34.398438 98.640625 34.394531 98.542969 34.382812 C 98.445312 34.367188 98.347656 34.363281 98.246094 34.359375 C 98.148438 34.34375 98.050781 34.351562 97.957031 34.34375 C 97.859375 34.34375 97.765625 34.34375 97.671875 34.347656 C 97.582031 34.355469 97.492188 34.355469 97.40625 34.367188 C 97.320312 34.375 97.242188 34.390625 97.164062 34.402344 C 97.089844 34.417969 97.015625 34.429688 96.953125 34.449219 C 96.890625 34.460938 96.832031 34.476562 96.785156 34.492188 C 96.738281 34.507812 96.699219 34.515625 96.671875 34.527344 C 96.648438 34.535156 96.632812 34.542969 96.632812 34.542969 C 96.632812 34.542969 96.648438 34.484375 96.707031 34.390625 C 96.738281 34.351562 96.773438 34.292969 96.824219 34.242188 C 96.871094 34.183594 96.9375 34.128906 97.007812 34.070312 C 97.082031 34.019531 97.167969 33.960938 97.261719 33.914062 C 97.355469 33.863281 97.464844 33.828125 97.574219 33.792969 C 97.628906 33.777344 97.6875 33.769531 97.746094 33.757812 C 97.804688 33.746094 97.863281 33.730469 97.925781 33.730469 C 98.042969 33.722656 98.167969 33.710938 98.289062 33.722656 C 98.410156 33.734375 98.53125 33.746094 98.644531 33.777344 C 98.761719 33.800781 98.871094 33.828125 98.976562 33.875 C 99.078125 33.914062 99.179688 33.953125 99.265625 34 C 99.355469 34.050781 99.4375 34.101562 99.507812 34.148438 C 99.65625 34.242188 99.761719 34.351562 99.835938 34.421875 Z M 105.148438 27.378906 L 104.933594 27.675781 L 105.589844 27.292969 L 110.957031 24.144531 C 111.261719 24.273438 111.582031 24.34375 111.914062 24.34375 C 113.941406 24.34375 115.53125 21.765625 115.53125 18.472656 C 115.53125 15.179688 113.941406 12.601562 111.914062 12.601562 C 109.882812 12.601562 108.292969 15.179688 108.292969 18.472656 C 108.292969 19.8125 108.554688 21.03125 109.003906 22.007812 Z M 108.933594 18.472656 C 108.933594 15.585938 110.269531 13.238281 111.914062 13.238281 C 113.554688 13.238281 114.894531 15.585938 114.894531 18.472656 C 114.894531 21.359375 113.554688 23.710938 111.914062 23.710938 C 110.269531 23.710938 108.933594 21.359375 108.933594 18.472656 Z M 111.914062 22.066406 C 113.132812 22.066406 114.121094 20.457031 114.121094 18.472656 C 114.121094 16.488281 113.132812 14.878906 111.914062 14.878906 C 110.691406 14.878906 109.863281 16.488281 109.863281 18.472656 C 109.863281 20.457031 110.691406 22.066406 111.914062 22.066406 Z M 111.9375 16.050781 C 112.761719 16.050781 113.429688 17.136719 113.429688 18.472656 C 113.429688 19.8125 112.761719 20.894531 111.9375 20.894531 Z M 111.9375 16.050781 " fill-opacity="1" fill-rule="nonzero"/><g fill="#ffffff" fill-opacity="1"><g transform="translate(29.339498, 68.45246)"><g><path d="M 13.367188 -22.847656 C 13.023438 -22.847656 12.824219 -22.675781 12.738281 -22.332031 L 9.566406 -8.109375 L 6.398438 -22.332031 C 6.3125 -22.675781 6.113281 -22.847656 5.769531 -22.847656 L 2 -22.847656 C 1.628906 -22.847656 1.429688 -22.648438 1.429688 -22.277344 L 1.429688 -0.570312 C 1.429688 -0.199219 1.628906 0 2 0 L 4.625 0 C 4.996094 0 5.199219 -0.199219 5.199219 -0.570312 L 5.199219 -13.421875 L 5.398438 -13.421875 L 8.226562 -0.515625 C 8.3125 -0.171875 8.511719 0 8.855469 0 L 10.253906 0 C 10.59375 0 10.796875 -0.171875 10.882812 -0.515625 L 13.707031 -13.421875 L 13.910156 -13.421875 L 13.910156 -0.570312 C 13.910156 -0.199219 14.109375 0 14.480469 0 L 17.136719 0 C 17.507812 0 17.707031 -0.199219 17.707031 -0.570312 L 17.707031 -22.277344 C 17.707031 -22.648438 17.507812 -22.847656 17.136719 -22.847656 Z M 13.367188 -22.847656 "/></g></g></g><g fill="#ffffff" fill-opacity="1"><g transform="translate(48.471419, 68.45246)"><g><path d="M 12.824219 -22.390625 C 12.824219 -22.675781 12.710938 -22.847656 12.367188 -22.847656 L 1.855469 -22.847656 C 1.597656 -22.847656 1.429688 -22.675781 1.429688 -22.390625 L 1.429688 -0.457031 C 1.429688 -0.171875 1.597656 0 1.855469 0 L 12.367188 0 C 12.710938 0 12.824219 -0.171875 12.824219 -0.457031 L 12.824219 -3.3125 C 12.824219 -3.628906 12.710938 -3.769531 12.367188 -3.769531 L 5.226562 -3.769531 L 5.226562 -9.539062 L 10.679688 -9.539062 C 10.96875 -9.539062 11.136719 -9.710938 11.136719 -10.023438 L 11.136719 -12.851562 C 11.136719 -13.167969 10.96875 -13.335938 10.679688 -13.335938 L 5.226562 -13.335938 L 5.226562 -19.050781 L 12.367188 -19.050781 C 12.710938 -19.050781 12.824219 -19.25 12.824219 -19.535156 Z M 12.824219 -22.390625 "/></g></g></g><g fill="#ffffff" fill-opacity="1"><g transform="translate(62.720417, 68.45246)"><g><path d="M 1.429688 -0.457031 C 1.429688 -0.144531 1.570312 0 1.886719 0 L 8.738281 0 C 11.425781 0 12.851562 -1.429688 12.851562 -4.113281 L 12.851562 -18.707031 C 12.851562 -21.390625 11.425781 -22.847656 8.738281 -22.847656 L 1.886719 -22.847656 C 1.570312 -22.847656 1.429688 -22.675781 1.429688 -22.390625 Z M 5.3125 -3.769531 L 5.3125 -19.078125 L 7.941406 -19.078125 C 8.683594 -19.078125 9.082031 -18.679688 9.082031 -17.90625 L 9.082031 -4.914062 C 9.082031 -4.140625 8.683594 -3.769531 7.941406 -3.769531 Z M 5.3125 -3.769531 "/></g></g></g><g fill="#ffffff" fill-opacity="1"><g transform="translate(76.997976, 68.45246)"><g><path d="M 1.886719 -22.847656 C 1.570312 -22.847656 1.429688 -22.675781 1.429688 -22.390625 L 1.429688 -0.457031 C 1.429688 -0.171875 1.570312 0 1.886719 0 L 4.855469 0 C 5.140625 0 5.3125 -0.171875 5.3125 -0.457031 L 5.3125 -22.390625 C 5.3125 -22.675781 5.140625 -22.847656 4.855469 -22.847656 Z M 1.886719 -22.847656 "/></g></g></g><g fill="#ffffff" fill-opacity="1"><g transform="translate(83.736987, 68.45246)"><g><path d="M 15.195312 0 C 15.535156 0 15.652344 -0.171875 15.59375 -0.484375 L 10.851562 -22.449219 C 10.796875 -22.734375 10.625 -22.847656 10.367188 -22.847656 L 6.398438 -22.847656 C 6.140625 -22.847656 5.96875 -22.734375 5.910156 -22.449219 L 1.171875 -0.484375 C 1.085938 -0.171875 1.226562 0 1.542969 0 L 4.597656 0 C 4.855469 0 4.996094 -0.144531 5.054688 -0.398438 L 5.828125 -4.570312 L 10.910156 -4.570312 L 11.710938 -0.398438 C 11.765625 -0.144531 11.910156 0 12.167969 0 Z M 10.195312 -7.882812 L 6.539062 -7.882812 L 8.367188 -17.851562 Z M 10.195312 -7.882812 "/></g></g></g><g fill="#ffffff" fill-opacity="1"><g transform="translate(100.470282, 68.45246)"><g/></g></g><g fill="#ffffff" fill-opacity="1"><g transform="translate(107.609062, 68.45246)"><g><path d="M 12.878906 -18.734375 C 12.878906 -21.417969 11.425781 -22.847656 8.769531 -22.847656 L 5.570312 -22.847656 C 2.882812 -22.847656 1.429688 -21.417969 1.429688 -18.734375 L 1.429688 -4.113281 C 1.429688 -1.429688 2.882812 0 5.570312 0 L 8.769531 0 C 11.425781 0 12.878906 -1.429688 12.878906 -4.113281 L 12.878906 -7.195312 C 12.878906 -7.484375 12.710938 -7.652344 12.421875 -7.652344 L 9.566406 -7.652344 C 9.253906 -7.652344 9.109375 -7.484375 9.109375 -7.195312 L 9.109375 -4.914062 C 9.109375 -4.140625 8.710938 -3.769531 7.96875 -3.769531 L 6.484375 -3.769531 C 5.742188 -3.769531 5.339844 -4.140625 5.339844 -4.914062 L 5.339844 -17.933594 C 5.339844 -18.679688 5.710938 -19.078125 6.484375 -19.078125 L 7.96875 -19.078125 C 8.710938 -19.078125 9.109375 -18.679688 9.109375 -17.933594 L 9.109375 -15.652344 C 9.109375 -15.363281 9.253906 -15.195312 9.566406 -15.195312 L 12.421875 -15.195312 C 12.710938 -15.195312 12.878906 -15.363281 12.878906 -15.652344 Z M 12.878906 -18.734375 "/></g></g></g><g fill="#ffffff" fill-opacity="1"><g transform="translate(121.91517, 68.45246)"><g><path d="M 11.652344 -22.847656 C 11.308594 -22.847656 11.109375 -22.703125 10.996094 -22.390625 L 7.796875 -14.195312 L 4.597656 -22.390625 C 4.484375 -22.703125 4.285156 -22.847656 3.941406 -22.847656 L 1.085938 -22.847656 C 0.65625 -22.847656 0.457031 -22.589844 0.628906 -22.191406 L 5.855469 -9.480469 L 5.855469 -0.570312 C 5.855469 -0.199219 6.054688 0 6.425781 0 L 9.167969 0 C 9.539062 0 9.738281 -0.199219 9.738281 -0.570312 L 9.738281 -9.480469 L 14.964844 -22.191406 C 15.136719 -22.589844 14.9375 -22.847656 14.507812 -22.847656 Z M 11.652344 -22.847656 "/></g></g></g><g fill="#ffffff" fill-opacity="1"><g transform="translate(137.506268, 68.45246)"><g><path d="M 12.878906 -18.734375 C 12.878906 -21.417969 11.425781 -22.847656 8.738281 -22.847656 L 1.886719 -22.847656 C 1.597656 -22.847656 1.429688 -22.703125 1.429688 -22.390625 L 1.429688 -0.457031 C 1.429688 -0.171875 1.597656 0 1.886719 0 L 8.738281 0 C 11.425781 0 12.878906 -1.429688 12.878906 -4.113281 L 12.878906 -9.367188 C 12.878906 -10.425781 12.109375 -11.222656 11.082031 -11.394531 L 11.082031 -11.453125 C 12.109375 -11.625 12.878906 -12.421875 12.878906 -13.480469 Z M 9.082031 -14.421875 C 9.082031 -13.707031 8.683594 -13.308594 7.941406 -13.308594 L 5.339844 -13.308594 L 5.339844 -19.078125 L 7.941406 -19.078125 C 8.710938 -19.078125 9.082031 -18.679688 9.082031 -17.933594 Z M 9.082031 -4.914062 C 9.082031 -4.140625 8.683594 -3.769531 7.941406 -3.769531 L 5.339844 -3.769531 L 5.339844 -9.539062 L 7.941406 -9.539062 C 8.710938 -9.539062 9.082031 -9.140625 9.082031 -8.398438 Z M 9.082031 -4.914062 "/></g></g></g><g fill="#ffffff" fill-opacity="1"><g transform="translate(151.812376, 68.45246)"><g><path d="M 1.429688 -4.113281 C 1.429688 -1.429688 2.855469 0 5.539062 0 L 8.738281 0 C 11.425781 0 12.851562 -1.429688 12.851562 -4.113281 L 12.851562 -18.734375 C 12.851562 -21.417969 11.425781 -22.847656 8.738281 -22.847656 L 5.539062 -22.847656 C 2.855469 -22.847656 1.429688 -21.417969 1.429688 -18.734375 Z M 6.367188 -3.683594 C 5.625 -3.683594 5.226562 -4.054688 5.226562 -4.828125 L 5.226562 -18.019531 C 5.226562 -18.765625 5.625 -19.164062 6.367188 -19.164062 L 8.023438 -19.164062 C 8.769531 -19.164062 9.167969 -18.765625 9.167969 -18.019531 L 9.167969 -4.828125 C 9.167969 -4.054688 8.769531 -3.683594 8.023438 -3.683594 Z M 6.367188 -3.683594 "/></g></g></g><g fill="#ffffff" fill-opacity="1"><g transform="translate(166.089935, 68.45246)"><g><path d="M 13.167969 -18.734375 C 13.167969 -21.417969 11.738281 -22.847656 9.054688 -22.847656 L 1.886719 -22.847656 C 1.597656 -22.847656 1.429688 -22.675781 1.429688 -22.390625 L 1.429688 -0.457031 C 1.429688 -0.171875 1.597656 0 1.886719 0 L 4.855469 0 C 5.140625 0 5.3125 -0.171875 5.3125 -0.457031 L 5.3125 -7.652344 L 7.28125 -7.652344 L 9.195312 -0.398438 C 9.253906 -0.144531 9.394531 0 9.683594 0 L 12.652344 0 C 12.964844 0 13.136719 -0.171875 13.050781 -0.515625 L 11.082031 -7.996094 C 12.453125 -8.597656 13.167969 -9.851562 13.167969 -11.765625 Z M 5.3125 -11.425781 L 5.3125 -19.078125 L 8.140625 -19.078125 C 8.882812 -19.078125 9.28125 -18.679688 9.28125 -17.933594 L 9.28125 -12.566406 C 9.28125 -11.824219 8.882812 -11.425781 8.140625 -11.425781 Z M 5.3125 -11.425781 "/></g></g></g><g fill="#ffffff" fill-opacity="1"><g transform="translate(180.681593, 68.45246)"><g><path d="M 1.429688 -4.113281 C 1.429688 -1.429688 2.855469 0 5.539062 0 L 9.308594 0 C 11.964844 0 13.421875 -1.429688 13.421875 -4.113281 L 13.421875 -12.050781 C 13.421875 -12.367188 13.25 -12.507812 12.964844 -12.507812 L 8.167969 -12.507812 C 7.855469 -12.507812 7.710938 -12.367188 7.710938 -12.050781 L 7.710938 -9.195312 C 7.710938 -8.910156 7.855469 -8.738281 8.167969 -8.738281 L 9.652344 -8.738281 L 9.652344 -4.914062 C 9.652344 -4.140625 9.253906 -3.769531 8.511719 -3.769531 L 6.453125 -3.769531 C 5.710938 -3.769531 5.3125 -4.140625 5.3125 -4.914062 L 5.3125 -17.933594 C 5.3125 -18.679688 5.683594 -19.078125 6.453125 -19.078125 L 8.511719 -19.078125 C 9.253906 -19.078125 9.652344 -18.679688 9.652344 -17.933594 L 9.652344 -15.765625 C 9.652344 -15.480469 9.796875 -15.308594 10.109375 -15.308594 L 12.964844 -15.308594 C 13.25 -15.308594 13.421875 -15.480469 13.421875 -15.765625 L 13.421875 -18.734375 C 13.421875 -21.417969 11.964844 -22.847656 9.308594 -22.847656 L 5.539062 -22.847656 C 2.855469 -22.847656 1.429688 -21.417969 1.429688 -18.734375 Z M 1.429688 -4.113281 "/></g></g></g></svg>