 <svg  version="1.0" xmlns="http://www.w3.org/2000/svg"  width="300.000000pt" height="168.000000pt" viewBox="0 0 300.000000 168.000000"  preserveAspectRatio="xMidYMid meet">  <g transform="translate(0.000000,168.000000) scale(0.100000,-0.100000)" fill="#36d7e2" stroke="none"> <path d="M1482 1508 c-7 -7 -12 -19 -12 -28 0 -12 -10 -15 -47 -15 -26 1 -48 6 -51 13 -5 16 -24 15 -47 -2 -15 -11 -18 -24 -16 -65 l2 -51 -29 6 c-16 3 -38 1 -49 -5 -14 -7 -23 -7 -31 1 -9 9 -16 7 -30 -5 -10 -9 -21 -15 -24 -12 -3 3 -6 -29 -7 -72 -1 -42 -7 -85 -12 -96 -6 -10 -8 -25 -5 -34 4 -10 2 -13 -8 -10 -26 10 -36 -16 -36 -95 0 -74 -1 -78 -24 -84 -68 -17 -98 -122 -57 -201 11 -22 27 -45 35 -52 9 -7 14 -17 11 -21 -4 -7 49 -23 80 -24 16 -1 28 -18 53 -71 50 -106 183 -248 268 -286 72 -33 150 -1 252 104 81 82 108 120 143 195 16 35 33 61 38 57 18 -10 75 22 110 61 32 36 35 44 35 111 1 62 -2 75 -22 96 -13 14 -34 28 -47 31 -22 6 -24 11 -24 82 0 68 -14 115 -29 99 -11 -11 -32 73 -32 131 0 69 -22 101 -62 91 -12 -4 -28 -1 -35 5 -7 6 -24 8 -38 6 -24 -5 -25 -3 -25 42 0 62 -37 99 -68 68 -6 -6 -32 -13 -57 -14 -36 -1 -45 2 -45 15 0 19 -19 41 -35 41 -6 0 -16 -5 -23 -12z m38 -193 c0 -126 4 -191 12 -204 9 -15 9 -23 -1 -35 -8 -9 -19 -16 -26 -16 -7 0 -18 7 -26 16 -10 12 -10 20 -1 35 8 13 12 78 12 204 0 158 2 185 15 185 13 0 15 -27 15 -185z m-160 -20 c0 -123 4 -181 13 -196 10 -17 9 -22 -8 -35 -22 -17 -34 -14 -49 9 -8 12 -7 22 2 37 8 14 12 70 12 183 0 90 3 167 7 170 19 20 23 -8 23 -168z m318 -1 c1 -92 7 -173 12 -178 14 -14 12 -42 -4 -55 -28 -23 -68 17 -45 45 7 9 10 74 9 190 -1 140 2 175 12 172 10 -4 14 -46 16 -174z m-218 116 c0 -10 -4 -22 -10 -25 -6 -4 -10 -71 -10 -169 l0 -162 33 -32 33 -32 32 33 33 34 -3 164 c-2 90 -7 171 -11 180 -12 25 19 52 44 39 20 -11 26 -45 9 -55 -6 -4 -10 -73 -10 -174 l0 -167 -40 -39 -40 -39 0 -138 c0 -87 4 -145 12 -157 23 -38 -19 -78 -50 -47 -14 13 -14 20 -4 36 8 13 12 67 12 163 l0 143 -40 39 -40 39 0 167 c0 101 -4 170 -10 174 -16 10 -12 43 7 54 23 12 53 -4 53 -29z m-268 -139 c-4 -65 -1 -83 12 -96 12 -13 14 -21 5 -36 -16 -30 -53 -21 -57 14 -2 15 1 27 7 27 7 0 11 28 11 73 0 43 5 78 12 85 7 7 13 12 13 12 1 0 0 -36 -3 -79z m98 58 c8 -15 8 -24 0 -34 -7 -9 -11 -61 -11 -142 l-1 -128 51 -10 c53 -11 101 -47 127 -97 8 -16 14 -57 14 -101 0 -62 -4 -78 -25 -107 -35 -48 -33 -91 6 -124 33 -28 59 -32 92 -14 50 26 62 86 27 131 -17 21 -20 40 -20 119 l0 93 38 43 c30 36 47 45 92 55 l55 12 3 124 c2 101 0 127 -13 141 -26 29 3 68 40 54 17 -7 20 -49 5 -59 -6 -4 -10 -58 -10 -131 l0 -124 53 26 c28 14 62 35 75 47 l22 20 0 -64 c0 -81 -24 -242 -50 -337 -31 -114 -77 -197 -155 -280 -163 -175 -236 -176 -397 -4 -76 80 -113 147 -152 270 -27 85 -56 275 -56 364 l0 51 23 -20 c12 -12 46 -33 75 -47 l52 -26 0 124 c0 73 -4 127 -10 131 -14 8 -13 38 2 53 18 18 36 15 48 -9z m546 -1 c4 -13 6 -49 5 -81 -2 -41 2 -61 13 -73 12 -12 13 -20 5 -35 -16 -30 -53 -21 -57 14 -2 16 2 27 8 27 9 0 11 25 9 85 -4 83 3 107 17 63z m-449 -70 c-3 -8 -6 -5 -6 6 -1 11 2 17 5 13 3 -3 4 -12 1 -19z m0 -110 c-3 -8 -6 -5 -6 6 -1 11 2 17 5 13 3 -3 4 -12 1 -19z m-167 -58 c0 -5 -4 -10 -10 -10 -5 0 -10 5 -10 10 0 6 5 10 10 10 6 0 10 -4 10 -10z m600 0 c0 -5 -7 -10 -16 -10 -8 0 -12 5 -9 10 3 6 10 10 16 10 5 0 9 -4 9 -10z m-420 -60 c0 -5 -7 -7 -15 -4 -8 4 -12 10 -9 15 6 11 24 2 24 -11z m-307 -157 c6 -54 27 -145 42 -185 10 -25 -14 -23 -56 5 -36 24 -79 96 -79 134 0 39 28 93 52 102 13 5 26 7 29 5 3 -2 9 -29 12 -61z m898 23 c23 -38 24 -75 4 -124 -20 -46 -48 -77 -86 -93 -35 -14 -45 -8 -31 18 9 17 29 106 46 204 6 31 10 36 27 32 12 -3 30 -20 40 -37z"/> <path d="M1400 499 c14 -6 44 -20 66 -30 l41 -20 34 20 c19 12 44 21 56 21 12 0 25 5 29 11 4 8 -9 9 -47 5 -65 -7 -79 -7 -149 -1 -45 4 -51 3 -30 -6z"/> <path d="M2928 673 c7 -3 16 -2 19 1 4 3 -2 6 -13 5 -11 0 -14 -3 -6 -6z"/> <path d="M2968 673 c6 -2 18 -2 25 0 6 3 1 5 -13 5 -14 0 -19 -2 -12 -5z"/> <path d="M157 212 c-13 -14 -17 -38 -17 -91 0 -97 10 -114 61 -106 26 5 45 3 54 -5 12 -10 18 -10 29 -1 9 7 28 10 48 6 50 -8 58 3 59 81 1 108 0 113 -21 124 -26 14 -50 -1 -79 -52 l-22 -40 -29 45 c-22 36 -46 57 -64 57 -2 0 -10 -8 -19 -18z m74 -72 l37 -62 37 66 c20 37 42 65 49 63 7 -2 12 -37 14 -90 3 -83 2 -87 -19 -87 -20 0 -21 4 -15 45 4 25 5 45 3 45 -3 0 -17 -20 -31 -44 -15 -25 -30 -47 -35 -51 -5 -3 -23 19 -40 47 l-31 53 0 -47 c0 -39 -3 -48 -17 -48 -16 0 -18 10 -16 82 1 46 2 87 3 91 1 22 28 -6 61 -63z"/> <path d="M452 214 c-20 -13 -22 -24 -22 -94 0 -78 12 -109 43 -110 7 -1 36 -2 66 -4 29 -2 64 2 76 8 20 11 21 19 8 56 -8 22 -8 79 0 87 14 13 6 53 -12 63 -30 16 -133 12 -159 -6z m158 -24 c0 -18 -7 -20 -62 -20 l-63 0 1 -33 c3 -82 -2 -77 64 -77 47 0 60 -3 60 -15 0 -12 -14 -15 -68 -15 -40 0 -73 5 -80 12 -7 7 -12 41 -12 85 l0 72 78 4 c42 1 78 4 80 5 1 1 2 -7 2 -18z m-10 -75 c0 -11 -12 -15 -50 -15 -38 0 -50 4 -50 15 0 11 12 15 50 15 38 0 50 -4 50 -15z"/> <path d="M682 214 c-20 -13 -22 -24 -22 -95 0 -101 12 -116 90 -113 73 3 106 17 125 53 29 58 14 120 -37 151 -41 25 -124 27 -156 4z m162 -36 c23 -33 21 -103 -4 -128 -16 -16 -33 -20 -85 -20 l-65 0 0 85 0 85 69 0 c61 0 72 -3 85 -22z"/> <path d="M720 115 l0 -55 39 0 c46 0 71 20 71 59 0 38 -17 51 -67 51 l-43 0 0 -55z m80 0 c0 -20 -5 -25 -25 -25 -20 0 -25 5 -25 25 0 20 5 25 25 25 20 0 25 -5 25 -25z"/> <path d="M937 217 c-12 -9 -17 -33 -19 -104 -3 -89 -2 -92 20 -98 53 -13 60 -2 59 97 -2 79 -5 92 -23 104 -16 11 -23 12 -37 1z m36 -100 c2 -77 0 -87 -15 -87 -16 0 -18 11 -18 89 0 76 2 89 16 87 13 -2 16 -18 17 -89z"/> <path d="M1103 220 c-53 -17 -73 -52 -73 -130 0 -53 4 -69 16 -74 27 -10 42 -7 61 13 21 23 43 22 67 -2 18 -18 34 -21 60 -11 13 5 16 23 16 93 0 47 -4 92 -9 100 -11 17 -95 24 -138 11z m127 -105 c0 -78 -2 -85 -20 -85 -13 0 -20 7 -20 20 0 17 -7 20 -50 20 -43 0 -50 -3 -50 -20 0 -13 -7 -20 -20 -20 -17 0 -20 7 -20 50 0 52 20 104 42 113 7 3 41 6 76 6 l62 1 0 -85z"/> <path d="M1108 159 c-10 -5 -18 -20 -18 -32 0 -20 5 -22 50 -22 50 0 50 0 50 33 0 30 -2 32 -32 32 -18 0 -41 -5 -50 -11z m57 -19 c3 -5 1 -10 -4 -10 -6 0 -11 5 -11 10 0 6 2 10 4 10 3 0 8 -4 11 -10z"/> <path d="M1460 224 c-9 -3 -21 -13 -27 -24 -14 -21 -19 -124 -9 -157 8 -26 52 -42 115 -42 52 0 81 16 81 46 0 28 -27 43 -80 43 -39 0 -41 1 -38 28 3 25 6 27 51 27 49 1 67 13 67 47 0 10 -9 22 -19 28 -19 10 -110 12 -141 4z m140 -39 c0 -12 -14 -15 -66 -15 l-65 0 3 -52 3 -53 63 -3 c46 -2 62 -7 62 -17 0 -19 -130 -21 -148 -3 -12 12 -17 114 -6 142 9 23 154 24 154 1z"/> <path d="M1658 216 c-37 -28 -13 -137 33 -149 16 -4 20 -11 16 -26 -3 -14 1 -21 19 -25 35 -9 74 3 74 23 0 9 14 28 30 43 26 23 30 33 30 77 0 39 -4 53 -19 61 -11 5 -22 10 -25 10 -13 0 -36 -34 -36 -55 0 -14 -7 -25 -19 -28 -24 -6 -41 10 -41 40 0 12 -9 27 -19 33 -24 12 -22 12 -43 -4z m42 -51 c5 -40 5 -40 52 -43 43 -3 48 -1 53 21 4 13 5 32 3 42 -2 11 4 19 15 20 14 3 17 -4 17 -37 0 -52 -15 -78 -45 -78 -21 0 -25 -5 -25 -30 0 -23 -5 -30 -19 -30 -15 0 -19 6 -18 27 2 21 -3 28 -23 33 -28 7 -50 42 -50 81 0 55 33 50 40 -6z"/> <path d="M1913 215 c-21 -15 -23 -24 -23 -105 0 -88 0 -90 26 -96 34 -9 133 -8 161 1 30 10 35 28 27 106 -8 87 -23 102 -107 107 -46 2 -68 -1 -84 -13z m157 -35 c7 -14 7 -26 1 -39 -8 -14 -7 -22 4 -31 19 -16 19 -54 1 -69 -9 -7 -42 -11 -88 -9 l-73 3 -3 83 -3 82 75 0 c65 0 77 -3 86 -20z"/> <path d="M1950 115 l0 -55 48 0 c27 0 52 3 55 7 14 14 -17 33 -54 33 -53 0 -54 28 -2 32 27 2 39 8 41 21 3 14 -4 17 -42 17 l-46 0 0 -55z"/> <path d="M2184 216 c-48 -21 -67 -101 -38 -162 22 -46 96 -66 161 -44 78 28 86 167 12 206 -35 18 -94 17 -135 0z m119 -17 c48 -22 62 -97 26 -143 -18 -23 -28 -26 -76 -26 -75 0 -93 16 -93 86 0 45 4 56 26 73 29 23 79 27 117 10z"/> <path d="M2202 158 c-7 -7 -12 -26 -12 -43 0 -40 16 -55 60 -55 44 0 60 15 60 55 0 17 -5 36 -12 43 -16 16 -80 16 -96 0z m80 -18 c5 0 8 -10 6 -22 -4 -33 -48 -38 -49 -6 -1 23 -1 23 -9 -2 l-8 -25 -1 27 c-1 27 14 40 37 32 8 -2 18 -4 24 -4z"/> <path d="M2423 215 c-19 -13 -22 -26 -25 -104 l-3 -89 30 -11 c20 -7 31 -8 33 -1 2 5 10 10 18 10 8 0 11 6 8 15 -4 8 -1 15 5 15 7 0 14 -7 17 -15 7 -17 63 -30 93 -20 24 7 27 27 7 44 -12 10 -12 16 0 39 23 44 18 88 -12 111 -33 26 -137 30 -171 6z m173 -40 c10 -39 -3 -72 -32 -82 l-26 -9 39 -27 38 -27 -29 0 c-16 0 -45 12 -65 27 -20 16 -39 27 -43 25 -5 -1 -8 7 -8 17 0 16 8 20 41 23 33 2 44 8 50 26 8 21 6 22 -46 22 l-55 0 0 -70 c0 -63 -2 -70 -20 -70 -18 0 -20 7 -20 85 l0 85 85 0 c82 0 85 -1 91 -25z"/> <path d="M2688 217 c-20 -8 -30 -20 -34 -44 -7 -40 -1 -140 10 -150 10 -10 149 -17 181 -9 23 6 25 11 25 61 0 29 -5 57 -10 60 -7 4 -7 12 0 25 14 26 13 36 -6 54 -18 19 -122 20 -166 3z m162 -32 c0 -12 -14 -15 -70 -15 l-70 0 0 -55 0 -55 55 0 c48 0 55 2 55 20 0 17 -7 20 -45 20 -33 0 -45 4 -45 15 0 12 13 15 60 15 l60 0 0 -50 0 -50 -80 0 c-92 0 -100 7 -100 85 0 78 8 85 100 85 64 0 80 -3 80 -15z"/> </g> </svg> 