<svg xmlns="http://www.w3.org/2000/svg" xmlns:xlink="http://www.w3.org/1999/xlink" width="50" zoomAndPan="magnify" viewBox="0 0 37.5 37.499999" height="50" preserveAspectRatio="xMidYMid meet" version="1.0"><defs><clipPath id="e8d1f3092e"><path d="M 0 0 L 37.007812 0 L 37.007812 37.007812 L 0 37.007812 Z M 0 0 " clip-rule="nonzero"/></clipPath></defs><g clip-path="url(#e8d1f3092e)"><path fill="#9b33cf" d="M 37.515625 18.761719 C 37.515625 19.375 37.484375 19.988281 37.425781 20.597656 C 37.363281 21.210938 37.273438 21.816406 37.152344 22.417969 C 37.035156 23.023438 36.886719 23.617188 36.707031 24.203125 C 36.527344 24.792969 36.320312 25.371094 36.085938 25.9375 C 35.851562 26.503906 35.589844 27.058594 35.300781 27.601562 C 35.011719 28.144531 34.695312 28.667969 34.355469 29.179688 C 34.011719 29.691406 33.648438 30.183594 33.257812 30.65625 C 32.867188 31.132812 32.457031 31.585938 32.023438 32.023438 C 31.585938 32.457031 31.132812 32.867188 30.65625 33.257812 C 30.183594 33.648438 29.691406 34.011719 29.179688 34.355469 C 28.667969 34.695312 28.144531 35.011719 27.601562 35.300781 C 27.058594 35.589844 26.503906 35.851562 25.9375 36.085938 C 25.371094 36.320312 24.792969 36.527344 24.203125 36.707031 C 23.617188 36.886719 23.023438 37.035156 22.417969 37.152344 C 21.816406 37.273438 21.210938 37.363281 20.597656 37.425781 C 19.988281 37.484375 19.375 37.515625 18.761719 37.515625 C 18.148438 37.515625 17.535156 37.484375 16.921875 37.425781 C 16.3125 37.363281 15.703125 37.273438 15.101562 37.152344 C 14.5 37.035156 13.90625 36.886719 13.316406 36.707031 C 12.730469 36.527344 12.152344 36.320312 11.585938 36.085938 C 11.015625 35.851562 10.460938 35.589844 9.921875 35.300781 C 9.378906 35.011719 8.851562 34.695312 8.34375 34.355469 C 7.832031 34.011719 7.339844 33.648438 6.863281 33.257812 C 6.390625 32.867188 5.933594 32.457031 5.5 32.023438 C 5.066406 31.585938 4.652344 31.132812 4.265625 30.65625 C 3.875 30.183594 3.507812 29.691406 3.167969 29.179688 C 2.828125 28.667969 2.511719 28.144531 2.222656 27.601562 C 1.933594 27.058594 1.667969 26.503906 1.433594 25.9375 C 1.199219 25.371094 0.992188 24.792969 0.816406 24.203125 C 0.636719 23.617188 0.488281 23.023438 0.367188 22.417969 C 0.246094 21.816406 0.15625 21.210938 0.0976562 20.597656 C 0.0390625 19.988281 0.0078125 19.375 0.0078125 18.761719 C 0.0078125 18.148438 0.0390625 17.535156 0.0976562 16.921875 C 0.15625 16.3125 0.246094 15.703125 0.367188 15.101562 C 0.488281 14.5 0.636719 13.90625 0.816406 13.316406 C 0.992188 12.730469 1.199219 12.152344 1.433594 11.585938 C 1.667969 11.015625 1.933594 10.460938 2.222656 9.921875 C 2.511719 9.378906 2.828125 8.851562 3.167969 8.34375 C 3.507812 7.832031 3.875 7.339844 4.265625 6.863281 C 4.652344 6.390625 5.066406 5.933594 5.5 5.5 C 5.933594 5.066406 6.390625 4.652344 6.863281 4.265625 C 7.339844 3.875 7.832031 3.507812 8.34375 3.167969 C 8.851562 2.828125 9.378906 2.511719 9.921875 2.222656 C 10.460938 1.933594 11.015625 1.667969 11.585938 1.433594 C 12.152344 1.199219 12.730469 0.992188 13.316406 0.816406 C 13.90625 0.636719 14.5 0.488281 15.101562 0.367188 C 15.703125 0.246094 16.3125 0.15625 16.921875 0.0976562 C 17.535156 0.0390625 18.148438 0.0078125 18.761719 0.0078125 C 19.375 0.0078125 19.988281 0.0390625 20.597656 0.0976562 C 21.210938 0.15625 21.816406 0.246094 22.417969 0.367188 C 23.023438 0.488281 23.617188 0.636719 24.203125 0.816406 C 24.792969 0.992188 25.371094 1.199219 25.9375 1.433594 C 26.503906 1.667969 27.058594 1.933594 27.601562 2.222656 C 28.144531 2.511719 28.667969 2.828125 29.179688 3.167969 C 29.691406 3.507812 30.183594 3.875 30.65625 4.265625 C 31.132812 4.652344 31.585938 5.066406 32.023438 5.5 C 32.457031 5.933594 32.867188 6.390625 33.257812 6.863281 C 33.648438 7.339844 34.011719 7.832031 34.355469 8.34375 C 34.695312 8.851562 35.011719 9.378906 35.300781 9.921875 C 35.589844 10.460938 35.851562 11.015625 36.085938 11.585938 C 36.320312 12.152344 36.527344 12.730469 36.707031 13.316406 C 36.886719 13.90625 37.035156 14.5 37.152344 15.101562 C 37.273438 15.703125 37.363281 16.3125 37.425781 16.921875 C 37.484375 17.535156 37.515625 18.148438 37.515625 18.761719 Z M 37.515625 18.761719 " fill-opacity="1" fill-rule="nonzero"/></g><path fill="#ffffff" d="M 15.226562 13.03125 L 20.429688 9.75 L 23.152344 9.75 C 23.128906 9.925781 23.117188 10.105469 23.117188 10.289062 C 23.117188 10.46875 23.128906 10.648438 23.152344 10.824219 L 20.75 10.824219 L 16.253906 13.625 Z M 15.226562 13.03125 " fill-opacity="1" fill-rule="nonzero"/><path fill="#ffffff" d="M 18.820312 18.226562 L 23.148438 18.226562 C 23.128906 18.402344 23.117188 18.578125 23.117188 18.761719 C 23.117188 18.941406 23.128906 19.121094 23.148438 19.292969 L 18.820312 19.292969 Z M 18.820312 18.226562 " fill-opacity="1" fill-rule="nonzero"/><path fill="#ffffff" d="M 16.253906 23.894531 L 20.75 26.699219 L 23.152344 26.699219 C 23.128906 26.875 23.117188 27.050781 23.117188 27.234375 C 23.117188 27.414062 23.128906 27.59375 23.152344 27.769531 L 20.429688 27.769531 L 15.226562 24.488281 Z M 16.253906 23.894531 " fill-opacity="1" fill-rule="nonzero"/><path fill="#ffffff" d="M 13.269531 13.917969 C 13.609375 13.972656 13.933594 14.058594 14.246094 14.179688 L 14.71875 13.359375 L 16.0625 14.132812 L 15.585938 14.953125 C 15.847656 15.167969 16.089844 15.40625 16.300781 15.667969 L 17.125 15.195312 L 17.898438 16.535156 L 17.078125 17.007812 C 17.195312 17.320312 17.285156 17.648438 17.339844 17.988281 L 18.285156 17.988281 L 18.285156 19.535156 L 17.339844 19.535156 C 17.285156 19.875 17.195312 20.199219 17.078125 20.511719 L 17.898438 20.984375 L 17.125 22.328125 L 16.300781 21.851562 C 16.089844 22.113281 15.847656 22.355469 15.585938 22.566406 L 16.0625 23.390625 L 14.71875 24.164062 L 14.246094 23.34375 C 13.933594 23.460938 13.609375 23.550781 13.269531 23.605469 L 13.269531 24.550781 L 11.722656 24.550781 L 11.722656 23.601562 C 11.382812 23.550781 11.054688 23.460938 10.746094 23.34375 L 10.269531 24.164062 L 8.929688 23.390625 L 9.40625 22.566406 C 9.140625 22.355469 8.902344 22.113281 8.6875 21.851562 L 7.867188 22.328125 L 7.09375 20.984375 L 7.914062 20.511719 C 7.792969 20.199219 7.707031 19.875 7.652344 19.535156 L 6.703125 19.535156 L 6.703125 17.988281 L 7.652344 17.988281 C 7.707031 17.648438 7.796875 17.320312 7.914062 17.007812 L 7.09375 16.535156 L 7.867188 15.195312 L 8.6875 15.667969 C 8.902344 15.40625 9.140625 15.167969 9.40625 14.953125 L 8.929688 14.132812 L 10.269531 13.359375 L 10.746094 14.179688 C 11.054688 14.058594 11.382812 13.972656 11.722656 13.917969 L 11.722656 12.96875 L 13.269531 12.96875 Z M 12.496094 15.667969 C 14.203125 15.667969 15.585938 17.054688 15.585938 18.761719 C 15.585938 20.46875 14.203125 21.851562 12.496094 21.851562 C 10.789062 21.851562 9.40625 20.46875 9.40625 18.761719 C 9.40625 17.054688 10.789062 15.667969 12.496094 15.667969 Z M 12.496094 15.667969 " fill-opacity="1" fill-rule="evenodd"/><path fill="#ffffff" d="M 27.234375 15.179688 C 25.253906 15.179688 23.652344 16.78125 23.652344 18.761719 C 23.652344 20.738281 25.253906 22.34375 27.234375 22.34375 C 29.210938 22.34375 30.816406 20.738281 30.816406 18.761719 C 30.816406 16.78125 29.210938 15.179688 27.234375 15.179688 Z M 27.503906 16.300781 C 27.503906 16.152344 27.382812 16.03125 27.234375 16.03125 C 27.085938 16.03125 26.964844 16.152344 26.964844 16.300781 L 26.964844 16.644531 C 26.363281 16.726562 25.6875 17.140625 25.6875 17.828125 C 25.6875 18.671875 26.296875 18.859375 26.964844 18.984375 L 26.964844 20.335938 C 26.660156 20.277344 26.222656 20.0625 26.222656 19.695312 C 26.222656 19.546875 26.105469 19.425781 25.957031 19.425781 C 25.808594 19.425781 25.6875 19.546875 25.6875 19.695312 C 25.6875 20.378906 26.351562 20.792969 26.964844 20.878906 L 26.964844 21.222656 C 26.964844 21.371094 27.085938 21.492188 27.234375 21.492188 C 27.382812 21.492188 27.503906 21.371094 27.503906 21.222656 L 27.503906 20.878906 C 28.113281 20.792969 28.78125 20.375 28.78125 19.695312 C 28.78125 18.851562 28.171875 18.660156 27.503906 18.535156 L 27.503906 17.1875 C 27.816406 17.242188 28.242188 17.460938 28.242188 17.828125 C 28.242188 17.976562 28.363281 18.09375 28.511719 18.09375 C 28.660156 18.09375 28.78125 17.976562 28.78125 17.828125 C 28.78125 17.144531 28.113281 16.726562 27.503906 16.644531 Z M 26.964844 17.1875 L 26.964844 18.4375 C 26.5625 18.351562 26.222656 18.214844 26.222656 17.828125 C 26.222656 17.457031 26.660156 17.242188 26.964844 17.1875 Z M 27.503906 20.335938 L 27.503906 19.082031 C 27.90625 19.167969 28.242188 19.304688 28.242188 19.695312 C 28.242188 20.058594 27.816406 20.277344 27.503906 20.335938 Z M 27.503906 20.335938 " fill-opacity="1" fill-rule="evenodd"/><path fill="#ffffff" d="M 27.234375 6.703125 C 25.253906 6.703125 23.652344 8.308594 23.652344 10.289062 C 23.652344 12.265625 25.253906 13.871094 27.234375 13.871094 C 29.210938 13.871094 30.816406 12.265625 30.816406 10.289062 C 30.816406 8.308594 29.210938 6.703125 27.234375 6.703125 Z M 26.339844 11.441406 L 26.339844 10.65625 C 26.339844 10.507812 26.222656 10.390625 26.074219 10.390625 C 25.925781 10.390625 25.804688 10.507812 25.804688 10.65625 L 25.804688 11.441406 L 25.421875 11.441406 L 25.421875 8.875 C 25.421875 8.726562 25.300781 8.609375 25.152344 8.609375 C 25.003906 8.609375 24.886719 8.726562 24.886719 8.875 L 24.886719 11.707031 C 24.886719 11.855469 25.003906 11.976562 25.152344 11.976562 L 29.316406 11.976562 C 29.464844 11.976562 29.582031 11.855469 29.582031 11.707031 C 29.582031 11.558594 29.464844 11.441406 29.316406 11.441406 L 28.96875 11.441406 L 28.96875 8.867188 C 28.96875 8.71875 28.847656 8.597656 28.699219 8.597656 C 28.550781 8.597656 28.433594 8.71875 28.433594 8.867188 L 28.433594 11.441406 L 28.09375 11.441406 L 28.09375 9.464844 C 28.09375 9.316406 27.972656 9.199219 27.824219 9.199219 C 27.675781 9.199219 27.554688 9.316406 27.554688 9.464844 L 27.554688 11.441406 L 27.214844 11.441406 L 27.214844 10.140625 C 27.214844 9.992188 27.097656 9.871094 26.949219 9.871094 C 26.800781 9.871094 26.679688 9.992188 26.679688 10.140625 L 26.679688 11.441406 Z M 26.339844 11.441406 " fill-opacity="1" fill-rule="evenodd"/><path fill="#ffffff" d="M 27.234375 23.652344 C 25.253906 23.652344 23.652344 25.253906 23.652344 27.234375 C 23.652344 29.210938 25.253906 30.816406 27.234375 30.816406 C 29.210938 30.816406 30.816406 29.210938 30.816406 27.234375 C 30.816406 25.253906 29.210938 23.652344 27.234375 23.652344 Z M 27.234375 24.457031 C 25.699219 24.457031 24.457031 25.699219 24.457031 27.234375 C 24.457031 28.769531 25.699219 30.011719 27.234375 30.011719 C 28.769531 30.011719 30.011719 28.769531 30.011719 27.234375 C 30.011719 25.699219 28.769531 24.457031 27.234375 24.457031 Z M 27.234375 24.457031 " fill-opacity="1" fill-rule="evenodd"/><path fill="#ffffff" d="M 27.5 24.324219 L 26.964844 24.324219 L 26.964844 24.867188 C 26.964844 25.011719 27.085938 25.132812 27.234375 25.132812 C 27.382812 25.132812 27.5 25.011719 27.5 24.867188 Z M 27.5 24.324219 " fill-opacity="1" fill-rule="nonzero"/><path fill="#ffffff" d="M 26.8125 27.503906 L 26.8125 26.964844 L 25.890625 26.964844 C 25.742188 26.964844 25.621094 27.085938 25.621094 27.234375 C 25.621094 27.382812 25.742188 27.503906 25.890625 27.503906 Z M 26.8125 27.503906 " fill-opacity="1" fill-rule="nonzero"/><path fill="#ffffff" d="M 27.84375 27.234375 C 27.84375 27.402344 27.78125 27.546875 27.664062 27.664062 C 27.546875 27.78125 27.402344 27.84375 27.234375 27.84375 C 27.066406 27.84375 26.921875 27.78125 26.804688 27.664062 C 26.683594 27.546875 26.625 27.402344 26.625 27.234375 C 26.625 27.066406 26.683594 26.921875 26.804688 26.804688 C 26.921875 26.683594 27.066406 26.625 27.234375 26.625 C 27.402344 26.625 27.546875 26.683594 27.664062 26.804688 C 27.78125 26.921875 27.84375 27.066406 27.84375 27.234375 Z M 27.84375 27.234375 " fill-opacity="1" fill-rule="nonzero"/><path fill="#ffffff" d="M 26.964844 26.8125 L 27.5 26.8125 L 27.5 25.574219 C 27.5 25.425781 27.382812 25.304688 27.234375 25.304688 C 27.085938 25.304688 26.964844 25.425781 26.964844 25.574219 Z M 26.964844 26.8125 " fill-opacity="1" fill-rule="nonzero"/><path fill="#ffffff" d="M 27.703125 27.511719 L 27.242188 27.78125 L 27.726562 28.621094 L 28.191406 28.355469 Z M 27.703125 27.511719 " fill-opacity="1" fill-rule="nonzero"/><path fill="#ffffff" d="M 28.921875 24.847656 L 28.457031 24.578125 L 28.1875 25.050781 C 28.113281 25.175781 28.15625 25.339844 28.285156 25.414062 C 28.414062 25.488281 28.578125 25.445312 28.652344 25.316406 Z M 28.921875 24.847656 " fill-opacity="1" fill-rule="nonzero"/><path fill="#ffffff" d="M 29.890625 26.011719 L 29.621094 25.546875 L 29.152344 25.816406 C 29.023438 25.890625 28.980469 26.054688 29.054688 26.183594 C 29.128906 26.3125 29.292969 26.355469 29.417969 26.28125 Z M 29.890625 26.011719 " fill-opacity="1" fill-rule="nonzero"/><path fill="#ffffff" d="M 30.144531 27.503906 L 30.144531 26.964844 L 29.601562 26.964844 C 29.453125 26.964844 29.335938 27.085938 29.335938 27.234375 C 29.335938 27.382812 29.453125 27.503906 29.601562 27.503906 Z M 30.144531 27.503906 " fill-opacity="1" fill-rule="nonzero"/><path fill="#ffffff" d="M 29.621094 28.921875 L 29.890625 28.457031 L 29.417969 28.1875 C 29.292969 28.113281 29.128906 28.15625 29.054688 28.285156 C 28.980469 28.414062 29.023438 28.578125 29.152344 28.652344 Z M 29.621094 28.921875 " fill-opacity="1" fill-rule="nonzero"/><path fill="#ffffff" d="M 28.457031 29.890625 L 28.921875 29.621094 L 28.652344 29.152344 C 28.578125 29.023438 28.414062 28.980469 28.285156 29.054688 C 28.15625 29.128906 28.113281 29.292969 28.1875 29.417969 Z M 28.457031 29.890625 " fill-opacity="1" fill-rule="nonzero"/><path fill="#ffffff" d="M 26.964844 30.144531 L 27.5 30.144531 L 27.5 29.601562 C 27.5 29.453125 27.382812 29.335938 27.234375 29.335938 C 27.085938 29.335938 26.964844 29.453125 26.964844 29.601562 Z M 26.964844 30.144531 " fill-opacity="1" fill-rule="nonzero"/><path fill="#ffffff" d="M 25.546875 29.621094 L 26.011719 29.890625 L 26.28125 29.417969 C 26.355469 29.292969 26.3125 29.128906 26.183594 29.054688 C 26.054688 28.980469 25.890625 29.023438 25.816406 29.152344 Z M 25.546875 29.621094 " fill-opacity="1" fill-rule="nonzero"/><path fill="#ffffff" d="M 24.578125 28.457031 L 24.847656 28.921875 L 25.316406 28.652344 C 25.445312 28.578125 25.488281 28.414062 25.414062 28.285156 C 25.339844 28.15625 25.175781 28.113281 25.046875 28.1875 Z M 24.578125 28.457031 " fill-opacity="1" fill-rule="nonzero"/><path fill="#ffffff" d="M 24.324219 26.964844 L 24.324219 27.503906 L 24.867188 27.503906 C 25.011719 27.503906 25.132812 27.382812 25.132812 27.234375 C 25.132812 27.085938 25.011719 26.964844 24.867188 26.964844 Z M 24.324219 26.964844 " fill-opacity="1" fill-rule="nonzero"/><path fill="#ffffff" d="M 24.847656 25.546875 L 24.578125 26.011719 L 25.050781 26.28125 C 25.175781 26.355469 25.339844 26.3125 25.414062 26.183594 C 25.488281 26.054688 25.445312 25.890625 25.316406 25.816406 Z M 24.847656 25.546875 " fill-opacity="1" fill-rule="nonzero"/><path fill="#ffffff" d="M 26.011719 24.578125 L 25.546875 24.847656 L 25.816406 25.316406 C 25.890625 25.445312 26.054688 25.488281 26.183594 25.414062 C 26.3125 25.339844 26.355469 25.175781 26.28125 25.046875 Z M 26.011719 24.578125 " fill-opacity="1" fill-rule="nonzero"/><path fill="#ffffff" d="M 28.144531 28.125 C 28.214844 28.074219 28.3125 28.070312 28.390625 28.117188 C 28.5 28.179688 28.53125 28.316406 28.46875 28.425781 L 28.292969 28.84375 C 28.257812 28.917969 28.183594 28.96875 28.09375 28.96875 L 27.648438 28.910156 C 27.5625 28.917969 27.476562 28.878906 27.429688 28.796875 C 27.367188 28.691406 27.402344 28.550781 27.511719 28.492188 Z M 28.144531 28.125 " fill-opacity="1" fill-rule="nonzero"/></svg>