<svg xmlns="http://www.w3.org/2000/svg" xmlns:xlink="http://www.w3.org/1999/xlink" width="50" zoomAndPan="magnify" viewBox="0 0 37.5 33.749999" height="45" preserveAspectRatio="xMidYMid meet" version="1.0"><defs><clipPath id="0993aa2660"><path d="M 0.34375 0.609375 L 37.007812 0.609375 L 37.007812 33.40625 L 0.34375 33.40625 Z M 0.34375 0.609375 " clip-rule="nonzero"/></clipPath></defs><g clip-path="url(#0993aa2660)"><path fill="#972ccd" d="M 18.9375 33.605469 C 2.382812 23.339844 0.347656 7.648438 0.347656 7.648438 L 4.074219 3.882812 L 7.3125 0.605469 L 30.40625 0.605469 L 37.09375 7.941406 C 37.09375 7.941406 36.222656 23.195312 18.9375 33.605469 " fill-opacity="1" fill-rule="nonzero"/></g><path fill="#b951ed" d="M 18.898438 30.503906 C 5.457031 22.167969 3.804688 9.425781 3.804688 9.425781 L 6.828125 6.371094 L 9.460938 3.710938 L 28.207031 3.710938 L 33.636719 9.664062 C 33.636719 9.664062 32.929688 22.046875 18.898438 30.503906 " fill-opacity="1" fill-rule="nonzero"/><path fill="#c95dff" d="M 18.929688 29.476562 C 18.257812 29.058594 17.621094 28.632812 17.007812 28.195312 C 22.070312 24.84375 25.742188 18.636719 27.132812 12.945312 C 27.828125 10.105469 28.066406 7.046875 27.503906 4.152344 L 27.730469 4.152344 L 32.863281 9.78125 C 32.863281 9.78125 32.195312 21.484375 18.929688 29.476562 " fill-opacity="1" fill-rule="nonzero"/><path fill="#ad52db" d="M 19.132812 31.761719 C 19.117188 31.761719 19.101562 31.753906 19.09375 31.742188 C 19.082031 31.722656 19.089844 31.695312 19.109375 31.683594 C 19.609375 31.351562 20.117188 31.03125 20.609375 30.695312 L 21.34375 30.175781 C 21.589844 30.003906 21.832031 29.832031 22.066406 29.644531 C 22.542969 29.28125 23.023438 28.925781 23.476562 28.535156 L 24.167969 27.960938 L 25.164062 27.058594 C 25.277344 26.957031 25.378906 26.851562 25.488281 26.75 L 26.128906 26.121094 C 26.34375 25.910156 26.542969 25.691406 26.75 25.476562 C 26.957031 25.261719 27.164062 25.046875 27.359375 24.820312 L 27.953125 24.148438 L 28.523438 23.457031 C 28.617188 23.339844 28.714844 23.226562 28.804688 23.109375 L 29.074219 22.753906 C 29.253906 22.511719 29.441406 22.28125 29.609375 22.035156 L 30.125 21.300781 C 30.292969 21.054688 30.449219 20.800781 30.613281 20.550781 C 30.777344 20.304688 30.925781 20.046875 31.082031 19.789062 L 31.3125 19.40625 L 31.53125 19.015625 C 31.824219 18.5 32.09375 17.964844 32.355469 17.429688 C 32.480469 17.160156 32.609375 16.894531 32.730469 16.621094 C 32.847656 16.347656 32.96875 16.074219 33.078125 15.800781 C 33.300781 15.246094 33.507812 14.6875 33.695312 14.125 C 33.789062 13.84375 33.886719 13.5625 33.96875 13.277344 C 34.058594 12.992188 34.136719 12.707031 34.21875 12.417969 C 34.363281 11.847656 34.515625 11.273438 34.632812 10.695312 C 34.691406 10.402344 34.75 10.113281 34.796875 9.824219 C 34.835938 9.59375 34.871094 9.351562 34.898438 9.128906 C 34.457031 8.621094 34.007812 8.121094 33.570312 7.613281 L 32.847656 6.777344 L 32.132812 5.9375 C 31.894531 5.65625 31.65625 5.375 31.421875 5.09375 L 30.714844 4.246094 C 30.25 3.675781 29.78125 3.105469 29.328125 2.523438 C 29.316406 2.503906 29.316406 2.480469 29.335938 2.464844 C 29.34375 2.457031 29.351562 2.457031 29.363281 2.457031 C 29.375 2.457031 29.382812 2.457031 29.390625 2.464844 C 29.929688 2.96875 30.457031 3.480469 30.984375 3.992188 L 31.769531 4.765625 C 32.03125 5.023438 32.292969 5.285156 32.550781 5.546875 L 33.324219 6.332031 L 34.09375 7.121094 C 34.609375 7.644531 35.113281 8.179688 35.621094 8.710938 C 35.703125 8.789062 35.738281 8.898438 35.730469 9.003906 L 35.730469 9.011719 C 35.710938 9.34375 35.679688 9.644531 35.636719 9.953125 C 35.59375 10.257812 35.539062 10.5625 35.484375 10.867188 C 35.367188 11.472656 35.222656 12.070312 35.050781 12.660156 C 34.964844 12.953125 34.875 13.246094 34.777344 13.539062 C 34.683594 13.828125 34.582031 14.117188 34.476562 14.40625 C 34.261719 14.980469 34.027344 15.542969 33.777344 16.101562 C 33.65625 16.382812 33.519531 16.65625 33.394531 16.933594 C 33.261719 17.207031 33.117188 17.476562 32.980469 17.75 C 32.699219 18.289062 32.40625 18.828125 32.09375 19.347656 L 31.859375 19.738281 L 31.613281 20.125 C 31.449219 20.382812 31.292969 20.640625 31.117188 20.886719 C 30.941406 21.140625 30.773438 21.390625 30.597656 21.636719 L 30.054688 22.371094 C 29.875 22.617188 29.679688 22.847656 29.492188 23.082031 L 29.207031 23.4375 C 29.109375 23.554688 29.007812 23.667969 28.910156 23.785156 L 28.316406 24.472656 L 27.695312 25.136719 C 27.492188 25.359375 27.277344 25.570312 27.0625 25.785156 C 26.84375 25.996094 26.632812 26.210938 26.414062 26.417969 L 25.742188 27.027344 C 25.628906 27.128906 25.523438 27.234375 25.40625 27.332031 L 25.058594 27.621094 L 24.367188 28.203125 L 23.652344 28.757812 C 23.183594 29.136719 22.683594 29.476562 22.195312 29.828125 C 21.957031 30.007812 21.703125 30.167969 21.449219 30.335938 L 20.695312 30.828125 C 20.183594 31.144531 19.664062 31.445312 19.152344 31.757812 C 19.144531 31.757812 19.136719 31.761719 19.132812 31.761719 " fill-opacity="1" fill-rule="nonzero"/><path fill="#ffffff" d="M 17.574219 25.082031 C 17.265625 25.082031 16.953125 24.992188 16.679688 24.804688 L 10.730469 20.753906 C 9.996094 20.253906 9.800781 19.25 10.296875 18.507812 C 10.792969 17.765625 11.789062 17.570312 12.523438 18.070312 L 17.15625 21.222656 L 26.878906 6.953125 C 27.378906 6.21875 28.378906 6.03125 29.109375 6.539062 C 29.839844 7.046875 30.023438 8.054688 29.519531 8.792969 L 18.898438 24.378906 C 18.585938 24.835938 18.082031 25.082031 17.574219 25.082031 " fill-opacity="1" fill-rule="nonzero"/></svg>